<?xml version="1.0" standalone="no"?>
<!DOCTYPE svg PUBLIC "-//W3C//DTD SVG 20010904//EN"
 "http://www.w3.org/TR/2001/REC-SVG-20010904/DTD/svg10.dtd">
<svg version="1.0" xmlns="http://www.w3.org/2000/svg"
 width="520.000000pt" height="520.000000pt" viewBox="0 0 520.000000 520.000000"
 preserveAspectRatio="xMidYMid meet">
<metadata>
Created by potrace 1.11, written by Peter Selinger 2001-2013
</metadata>
<g transform="translate(0.000000,520.000000) scale(0.100000,-0.100000)"
fill="#000000" stroke="none">
<path d="M2955 4800 c270 -539 429 -1040 475 -1493 18 -171 8 -487 -18 -598
-60 -254 -190 -517 -445 -899 -245 -367 -414 -551 -506 -552 -121 -1 -298 211
-457 547 -174 369 -219 754 -109 941 60 102 138 148 250 149 60 0 81 -5 137
-33 163 -80 235 -247 226 -524 l-4 -129 24 46 c41 81 92 251 109 362 63 422
-188 779 -605 859 -264 51 -527 -44 -667 -240 -209 -293 -198 -715 30 -1236
138 -314 321 -620 703 -1172 234 -338 290 -423 346 -528 l43 -81 6 93 c16 244
153 518 430 863 57 72 207 247 333 390 249 283 377 435 471 560 193 256 317
499 364 710 18 82 16 290 -4 400 -61 340 -255 720 -564 1105 -188 235 -506
544 -641 624 -7 4 26 -69 73 -164z"/>
<path d="M2315 161 c-50 -7 -50 -7 -22 -19 20 -8 99 -12 255 -11 232 1 290 6
262 24 -18 11 -423 16 -495 6z"/>
</g>
</svg>
