<svg xmlns="http://www.w3.org/2000/svg"><defs><font id="roboto_condenseditalic" horiz-adv-x="665"><font-face units-per-em="2048" ascent="1536" descent="-512"/><glyph unicode="ﬁ" horiz-adv-x="983" d="M71 0l163 939H97l25 143h136l13 93q26 187 129.5 287.5T660 1559q63-2 121-21.5t115-42.5l-46-155q-93 53-186 53-180 3-216-205l-16-106h170l-25-143H408L245 0H71zm652 0H549l188 1082h174z"/><glyph unicode="ﬂ" horiz-adv-x="1011" d="M814 1385q-95 19-142 19-166 0-199-226l-14-96h180l-25-143H435L272 0H99l163 939H125l25 143h137l17 120q24 172 120 267t244 91q76-2 177-25l160-39L750 0H579z"/><glyph unicode="ﬃ" horiz-adv-x="1489" d="M99 0l163 939H125l25 143h137l14 107q24 180 118 277.5t238 93.5q52-2 112-19l-25-150q-40 10-79 12-155 0-190-219l-16-102h306l10 80q24 189 126 294t265 103q63-2 121-21t115-43l-46-155q-93 52-188 52-178 3-215-203l-16-107h172l-25-143H913L750 0H577l163 939H435L272 0H99zm1129 0h-172l188 1082h172z"/><glyph unicode="ﬄ" horiz-adv-x="1489" d="M99 0l163 939H125l25 143h137l16 113q25 180 118.5 274t235.5 91q52-2 112-19l-25-150q-48 12-79 12-71 2-120.5-50T478 1202l-19-120h306l17 120q24 172 120 267t244 91q63-1 158-22l178-42L1228 0h-172l242 1382q-103 20-146 20-78 0-129.5-52T954 1197l-17-115h181l-25-143H913L750 0H577l163 939H435L272 0H99z"/><glyph horiz-adv-x="0"/><glyph horiz-adv-x="0"/><glyph horiz-adv-x="465"/><glyph horiz-adv-x="0"/><glyph horiz-adv-x="465"/><glyph horiz-adv-x="465"/><glyph horiz-adv-x="465"/><glyph unicode="!" horiz-adv-x="498" d="M291 411H136l169 1045h181zM64 91q2 44 28.5 76t72.5 33q42 2 70-29t26-77q-2-43-28.5-73.5T161-12q-42-2-70.5 27.5T64 91z"/><glyph unicode="&quot;" horiz-adv-x="645" d="M393 1390l-83-348-110-1 80 503 136-9zm262 0l-83-348H462l80 502 136-9z"/><glyph unicode="#" horiz-adv-x="1098" d="M611 410H416L279 0H144l137 410H94l24 137h209l119 354H241l24 139h227l140 416h135l-140-416h194l140 416h136l-139-416h155l-24-139H912L793 547h174l-24-137H747L609 0H473zM462 547h195l119 354H581z"/><glyph unicode="$" horiz-adv-x="991" d="M676 383q18 172-169 263-149 72-214.5 175T238 1071q13 163 102.5 269.5T581 1472l39 220h138l-40-223q107-29 163-123t58-245l-3-93H765l2 92q-2 97-39 155t-105 60q-90 2-146.5-64.5T408 1075q-9-88 32-153t136-112q154-76 218-177.5T847 384q-12-166-110-272T476-16l-35-192H305l35 194Q209 12 142 126T88 429h173q-9-145 34.5-216.5T425 140q102-2 170 65t81 178z"/><glyph unicode="%" horiz-adv-x="1267" d="M482 1478q108-4 166-88.5t51-213.5l-6-65q-13-142-89.5-228T416 799q-105 2-165.5 87T197 1099l6 64q13 144 89.5 230.5T482 1478zm-158-381v-56q4-55 29-88t68-34q54-2 93 45.5t51 133.5l8 79v57q-4 55-28.5 88.5T477 1357q-58 2-97.5-50T331 1167zm308-740q15 136 91 219.5T910 658q106-3 165.5-87t52.5-214l-6-65q-13-146-91-231.5T844-22q-104 2-164.5 85.5T626 279zm121-137q4-55 28.5-88.5T849 97q58-2 97 51t48 139l7 71v57q-4 55-28.5 88.5T905 538q-57 2-98-51.5t-48.5-143T753 220zM313 112l-90 72 770 1128 92-72z"/><glyph unicode="&amp;" horiz-adv-x="1090" d="M74 383q9 106 73.5 199.5T368 788l-39 86q-57 130-49 240 14 168 109 267.5t235 95.5q121-4 195-90.5t66-210.5q-10-182-200-327l-110-84 186-362q66 122 89 269h152q-26-253-159-418L971 0H777l-52 105Q579-23 414-19 253-17 157 95.5T74 383zm347-252q90-3 186 74l43 36-209 421-34-26Q264 514 250 383q-14-108 32-179t139-73zm27 990q-5-44 6.5-92.5T503 896l85 66q55 42 91.5 92.5T723 1177q5 64-27 106.5t-85 42.5q-63 0-107.5-56.5T448 1121z"/><glyph unicode="'" horiz-adv-x="356" d="M374 1418l-76-361H170l77 479h146z"/><glyph unicode="(" horiz-adv-x="634" d="M697 1644l23-124q-185-169-296-451T278 391l-7-127q-7-208 31.5-366T426-358l-45-111q-96 86-161 219T128 55t-18 345q4 92 16 176l12 73q63 353 208.5 613T697 1644z"/><glyph unicode=")" horiz-adv-x="642" d="M495 585q-36-242-116-453T183.5-232.5-74-471l-24 115q272 252 379 727 64 283 70 537 10 425-154 623l45 111q146-128 215-355t56-515q-5-93-16-176z"/><glyph unicode="*" horiz-adv-x="866" d="M384 987l-277 90 68 144 278-113 51 348h150l-70-344 303 108 19-159-315-91 147-275-128-88-131 290-222-280-114 98z"/><glyph unicode="+" horiz-adv-x="996" d="M610 781h320l-31-175H580l-80-460H326l80 460H84l31 175h321l74 425h174z"/><glyph unicode="," horiz-adv-x="400" d="M-9-291l-104 75Q3-73 31 68l26 151h177L213 84Q177-144-9-291z"/><glyph unicode="-" horiz-adv-x="503" d="M437 543H35l27 151h402z"/><glyph unicode="." horiz-adv-x="533" d="M164 210q49 1 81-30t31-80-33-79.5T163-12 84 15.5 53 94t31 81.5 80 34.5z"/><glyph unicode="/" horiz-adv-x="746" d="M54-125h-154l771 1581h152z"/><glyph unicode="0" horiz-adv-x="991" d="M404-21q-276 7-297 372-7 128 18 298l38 252q53 310 168 444.5T627 1476q276-7 297-363 6-106-13-270l-46-302q-53-299-169-433.5T404-21zm356 1065q6 144-31 210t-114 71q-213 12-274-376l-55-372q-13-95-15-155-11-286 144-292 210-11 272 372l51 338q19 128 22 204z"/><glyph unicode="1" horiz-adv-x="991" d="M521 0H347l214 1227-322-136 32 178 468 194h31z"/><glyph unicode="2" horiz-adv-x="991" d="M810 0H19l22 141 522 590q101 116 147 215t38 209q-7 77-46 122.5T599 1326q-109 3-178.5-77T333 1028l-170-1q20 202 141.5 327.5T608 1476q157-4 244.5-111t72.5-272q-18-192-200-414l-71-84-399-444h579z"/><glyph unicode="3" horiz-adv-x="991" d="M372 818l105-2q129 2 202.5 97.5T739 1163q-7 77-47 119.5T585 1326q-88 2-149-62.5T356 1075l-170-1q17 177 130.5 291T596 1477q106-2 181-54.5T887 1278t25-206q-10-108-72.5-193.5T678 742q82-42 119-127.5T824 413Q806 218 687.5 97T394-20Q235-16 145.5 96T65 384h173q-8-119 36.5-185T404 131q103-3 170 73t79 206q12 118-36.5 185T470 666l-123 1z"/><glyph unicode="4" horiz-adv-x="991" d="M745 489h157l-26-151H719L660 0H487l59 338H12l21 119 693 999h187zm-510 0h337l126 694z"/><glyph unicode="5" horiz-adv-x="991" d="M202 733l175 723h616l-27-171H498L395 887q96 65 190 63 136-2 212-103.5T879 577q6-170-50-311T670 49.5 434-22Q286-19 197 90.5T106 384h161q11-250 177-253 129-3 200.5 129T705 571q-7 96-51 153t-120 60q-48 2-90.5-17T344 694z"/><glyph unicode="6" horiz-adv-x="991" d="M841 1458l-15-157h-33q-161-4-273.5-111T331 833q112 126 252 122 129-4 203-101.5T866 585q6-158-48.5-303.5T663.5 56 430-20q-174 5-256 167-57 114-60 273-1 63 17 205 62 425 230 625.5T802 1458h39zM542 802q-73 2-138-50.5T296 603l-7-72-3-66q-7-144 32.5-236.5T440 132q118-5 188.5 119.5T695 571q-2 100-41.5 164.5T542 802z"/><glyph unicode="7" horiz-adv-x="991" d="M1009 1342L317 0H129l689 1304H192l24 152h811z"/><glyph unicode="8" horiz-adv-x="991" d="M931 1085q-21-221-231-341 74-54 111-144.5T839 402Q824 217 705.5 96T409-21Q249-17 159.5 98T85 385q22 249 259 370-64 54-92.5 136.5T231 1067q13 181 123.5 297.5T631 1477q148-4 231-113t69-279zM667 405q11 122-33 194.5T507 674h-2q-79 1-139.5-50.5t-89-144T258 299q9-79 51-123.5T420 130q99-3 166.5 71.5T667 405zm91 756q-7 74-44 118.5t-95 45.5q-89 2-148-73t-69-187q-9-111 29-175t111-66q103-4 166 99t50 238z"/><glyph unicode="9" horiz-adv-x="991" d="M694 622Q570 484 441 487q-86 1-149 48t-96.5 136T160 862q-6 158 50 309t156 230 229 75q153-4 234-127.5t78-338.5q-2-131-38-318-66-344-222.5-512T245-1l-62-1 15 156h43q167 5 277 112.5T694 622zm-214 17q131-6 240 194 19 148 15 232-6 124-44 189.5T585 1323q-127 6-199-148-42-91-52-200l-4-62q-3-126 35.5-199T480 639z"/><glyph unicode=":" horiz-adv-x="474" d="M158 210q49 1 81-30t31-80-33-79.5T157-12 78 15.5 47 94t31 81.5 80 34.5zm153 883q49 1 81-30t31-80-33-79.5-80-32.5-79 27.5-31 78.5 31 81.5 80 34.5z"/><glyph unicode=";" horiz-adv-x="413" d="M287 1093q49 1 81-30t31-80-33-79.5-80-32.5-79 27.5-31 78.5 31 81.5 80 34.5zM5-291l-104 75Q17-73 45 68l26 151h177L227 84Q191-144 5-291z"/><glyph unicode="&lt;" horiz-adv-x="896" d="M253 639l451-253-32-186L72 580l26 146 731 378-37-207z"/><glyph unicode="=" horiz-adv-x="962" d="M861 814H180l28 161h682zm-72-415H108l28 160h682z"/><glyph unicode="&gt;" horiz-adv-x="924" d="M667 656L186 914l31 180 635-379-26-145L60 190l36 203z"/><glyph unicode="?" horiz-adv-x="848" d="M279 409q13 114 55.5 200.5t140 187 132 154.5 47.5 105.5 10 115.5q-4 67-36 105.5t-88 39.5q-76 2-129-54.5T341 1116l-171-1q19 164 124.5 265t258.5 97q147-4 224.5-108.5T840 1104q-14-166-172-334L543 643q-73-84-96-233zM213 91q2 44 27.5 75.5T312 200q40 2 69-27.5T408 94q-2-43-28.5-74T308-12q-42-2-69.5 27T213 91z"/><glyph unicode="@" horiz-adv-x="1538" d="M997-21q-75 2-120.5 44T821 138l-40-52Q694-22 596-22q-85 2-131.5 66.5T415 237q-4 170 62.5 363T643 892.5 862 990q74-2 128.5-30.5T1098 882L970 327q-16-81-14-135 4-93 70-96 105-5 176.5 118.5T1305 582q20 154 13 271-13 218-112.5 330.5T925 1299q-157 3-292-81.5t-236.5-254-157-399.5T195 134q10-225 107.5-342T573-327q145-2 288 78l22-117q-120-87-312-87-238 4-369 167T62 178l1 94q8 211 77 427.5T328 1087t273 259 328 85q235-4 365-166.5T1433 802v-95q-11-224-68.5-391.5t-152-254T997-21zM567 240q4-118 86-121 50-2 99.5 55T827 309l4 19 122 513q-40 21-78 23-114 4-190-122T572 352q-8-57-5-112z"/><glyph unicode="A" horiz-adv-x="1155" d="M776 380H300L124 0H-66l707 1456h154L998 0H821zM374 538h383l-77 660z"/><glyph unicode="B" horiz-adv-x="1093" d="M48 0l252 1456 391-1q176-5 262.5-104t72.5-275q-18-204-238-314 80-35 119.5-125T937 428q-16-197-139.5-313T482 0H48zm297 681l-91-524 232-2q136 2 212 105.5T762 518q-14 154-158 162zm26 154l219-2q82 2 144.5 46.5t91.5 123 19 161.5q-16 127-158 133l-235 1z"/><glyph unicode="C" horiz-adv-x="1136" d="M1007 463q-33-228-169.5-358.5T492-20q-116 3-201 61T160.5 209 113 454q-1 71 8 139l40 257q47 299 198 465t376 161q186-3 283.5-131.5T1107 987l-180 1q4 124-15.5 189T847 1279.5 724 1319q-150 5-248-113.5T342 851l-40-259q-15-105-10-191 8-131 62.5-197T502 135q131-5 210.5 69T831 461z"/><glyph unicode="D" horiz-adv-x="1144" d="M48 0l252 1456 326-1q231-5 345-170.5t80-434.5l-35-234q-45-299-211-458T383 0H48zm404 1298L254 157l131-1q186-2 302 111.5T838 610l37 244q10 79 8 157-5 133-71.5 207.5T621 1297z"/><glyph unicode="E" horiz-adv-x="996" d="M843 673H344l-90-516h582L808 0H48l252 1456h752l-28-158H452l-82-468h500z"/><glyph unicode="F" horiz-adv-x="964" d="M815 643H338L227 0H48l252 1456h737l-28-158H452l-87-498h478z"/><glyph unicode="G" horiz-adv-x="1184" d="M973 182q-42-57-97-97Q728-23 521-20q-187 2-294 127T114 445q-2 73 7 146l45 287q46 288 183 442 144 161 381 156 188-6 287.5-124t95.5-324l-178 1q0 148-55.5 217T721 1318q-149 7-244-99T345 881l-46-305-6-82v-69q16-284 235-288 79-2 141 23.5T792 233l61 336H594l28 156h435z"/><glyph unicode="H" horiz-adv-x="1242" d="M973 0H794l117 673H344L227 0H48l252 1456h179L370 830h568l108 626h180z"/><glyph unicode="I" horiz-adv-x="507" d="M234 0H55l253 1456h179z"/><glyph unicode="J" horiz-adv-x="970" d="M795 1456h180L800 425Q769 213 649 93.5T356-21Q187-15 101.5 98.5T30 402h179q-9-129 32.5-196T368 136q95-3 161 69.5T620 424z"/><glyph unicode="K" horiz-adv-x="1093" d="M488 669L311 489 227 0H48l252 1456h179L358 764l144 157 466 535h228L617 805 967 0H765z"/><glyph unicode="L" horiz-adv-x="954" d="M255 157h554L781 0H48l252 1456h180z"/><glyph unicode="M" horiz-adv-x="1511" d="M527 1456L689 270l574 1186h234L1244 0h-179l100 576 111 541L717 0H580L408 1140l-85-582L227 0H48l252 1456h227z"/><glyph unicode="N" horiz-adv-x="1240" d="M972 0H797L424 1130 228 0H48l252 1456h175L849 321l197 1135h178z"/><glyph unicode="O" horiz-adv-x="1203" d="M506-20q-182 4-284.5 130T116 455q-1 73 8 145l42 272q50 290 196.5 449.5T732 1476q171-4 271-113t116-310l3-54q0-74-9-146l-43-277q-51-291-196-446T506-20zm429 877l9 97q10 175-47 264.5T721 1312q-149 5-245-106.5T343 874l-43-289-7-81q-10-171 47.5-264.5T517 142q293-9 371 409z"/><glyph unicode="P" horiz-adv-x="1111" d="M326 570L227 0H48l252 1456 439-1q179-6 276-126.5t80-309.5q-18-208-149-329T609 569zm27 157l263-2q99 0 172 51.5t107 147 22 193.5q-10 81-57 128.5T735 1297l-283 1z"/><glyph unicode="Q" horiz-adv-x="1203" d="M779 67l177-200-132-113L613-8q-66-11-119-11-180 2-282 129T107 458q-1 73 8 143l38 247q46 299 194 466t376 162q184-4 286.5-130T1114 999q0-74-9-146l-42-270q-32-194-102-317.5T779 67zm148 789q15 117 10 198-20 251-224 258-150 5-247-109.5T333 862l-41-276-7-81q-10-173 46.5-266T507 142q147-7 244.5 102.5T886 588z"/><glyph unicode="R" horiz-adv-x="1064" d="M581 589H330L227 0H48l252 1456 385-1q188-6 282-121t75-308q-13-139-87-240T754 628L923 13l-1-13H730zM357 746l207-2q95 2 167.5 51T839 933.5t24 194.5q-8 76-54.5 120.5T680 1297l-227 1z"/><glyph unicode="S" horiz-adv-x="1039" d="M734 376q11 91-30 152.5T534 646 337 761q-143 123-129 310 14 176 143.5 292.5T664 1476q176-4 278-128.5t89-312.5H851q10 138-41 209.5T654 1318q-108 2-181-65.5T388 1074q-10-82 38-144.5t167.5-113T781 710q150-123 133-332-15-178-143.5-290T448-20q-183 4-293 128T55 423l180-1q-11-129 48-206t175-79q109-4 185.5 61T734 376z"/><glyph unicode="T" horiz-adv-x="1044" d="M1099 1298H728L503 0H324l225 1298H178l28 158h921z"/><glyph unicode="U" horiz-adv-x="1126" d="M1156 1456L981 431Q952 217 818 95.5T481-22q-193 4-292.5 124.5T112 430l174 1026h178L290 429q-7-60-1-112 17-175 202-181 127-5 206 66.5T800 417l176 1039h180z"/><glyph unicode="V" horiz-adv-x="1123" d="M503 283l507 1173h202L544 0H388L177 1456h189z"/><glyph unicode="W" horiz-adv-x="1523" d="M399 448l-7-145 51 143 383 1010h149l61-1024 4-138 50 175 325 987h183L1088 0H927l-70 1069v74l-29-87L420 0H257l-53 1456h175z"/><glyph unicode="X" horiz-adv-x="1104" d="M591 899l353 557h219L676 725 933 0H731L549 567 188 0H-33l499 743-254 713h199z"/><glyph unicode="Y" horiz-adv-x="1052" d="M537 727l416 729h211L597 532 505 0H326l97 554-241 902h194z"/><glyph unicode="Z" horiz-adv-x="1048" d="M215 157h665L852 0H-16l27 154 836 1144H215l28 158h836l-27-151z"/><glyph unicode="[" horiz-adv-x="508" d="M598 1512H448L187-160h150l-24-152H-10l309 1976h323z"/><glyph unicode="\" horiz-adv-x="743" d="M201 1456h156L578-125H423z"/><glyph unicode="]" horiz-adv-x="508" d="M195 1664h324L210-312h-324l24 152H62l261 1672H171z"/><glyph unicode="^" horiz-adv-x="747" d="M477 1209L251 729H85l371 727h116l116-727H538z"/><glyph unicode="_" horiz-adv-x="814" d="M651-151h-759L-81 0h759z"/><glyph unicode="`" horiz-adv-x="624" d="M555 1242H413l-205 294h205z"/><glyph unicode="a" horiz-adv-x="962" d="M578 0q-6 30-5 59l4 59Q462-21 329-21q-130 0-202.5 84.5T62 287q11 168 138.5 269T535 657h120l17 115q18 179-135 179-79 0-131.5-46.5T339 783l-171-1q13 137 124.5 230t262.5 91q146-2 224.5-89.5T843 769l-88-533q-9-57-7-109l6-110-2-17H578zM365 139q130 0 224 127l45 259-79 1q-102 0-181-37.5t-111.5-104T240 240q13-101 125-101z"/><glyph unicode="b" horiz-adv-x="990" d="M455-20q-166 6-235 149L183 0H24l267 1536h172L354 963q107 143 258 139 141-2 212.5-103.5T892 703q-4-107-24-239t-59-226Q700-27 455-20zm267 764q-5 105-46 153t-119 50q-127 3-223-149l-88-517q47-141 174-146 117-5 188 82.5t93.5 277T722 744z"/><glyph unicode="c" horiz-adv-x="928" d="M414 129q85-3 143 53t81 158l163 1Q778 181 666 78T404-21q-143 3-228 86T74 298q-10 90 1 181l14 109q33 253 154.5 386T560 1102q150-4 232.5-110T868 709l-163 1q6 235-155 241-235 9-284-335-31-213-25-290 10-194 173-197z"/><glyph unicode="d" horiz-adv-x="996" d="M514 1101q149-4 222-126l104 561h173L747 0H590l19 116Q502-24 352-20 217-18 143.5 85T70 380q0 89 23 236t71 249q114 243 350 236zM242 337q5-199 165-202 57-2 109 28.5T621 268l94 548q-50 125-167 130-237 12-286-348-24-176-20-261z"/><glyph unicode="e" horiz-adv-x="940" d="M427-20q-182 2-272 131T89 463l13 107q31 252 153.5 394.5T567 1102q154-4 231.5-105.5T872 711l-9-120-15-103-580 1q-13-90-12-141 2-101 50-158.5T443 131q64-2 126.5 25.5T701 253l81-113Q718 56 624 17T427-20zm129 971q-177 8-248-214l-27-97 415-1 5 26q6 46 6 96-4 182-151 190z"/><glyph unicode="f" horiz-adv-x="639" d="M99 0l163 939H125l25 143h137l14 107q24 180 117.5 276t238.5 94q52-2 112-19l-25-149q-40 10-80 12-154 0-189-219l-16-102h180l-25-143H435L272 0H99z"/><glyph unicode="g" horiz-adv-x="989" d="M514 1102q159-4 229-142l36 122h157L751-9q-17-128-75.5-225T524-381t-212-46q-85 2-171 41.5T2-285l82 119q97-106 221-110 109-4 179.5 61T578-19l26 126Q497-24 354-20 215-18 142.5 88T72 379q0 79 19 216 35 251 141.5 381.5T514 1102zM244 337q5-199 164-202 120-3 215 135l93 543q-52 128-166 133-240 9-287-354-23-175-19-255z"/><glyph unicode="h" horiz-adv-x="969" d="M356 970q121 135 263 131 104-1 163.5-68.5T850 844q4-69-3-135L729 0H557l119 712 4 79q0 153-126 156-103 3-192-117l-30-43L196 0H23l267 1536h173z"/><glyph unicode="i" horiz-adv-x="465" d="M210 0H37l188 1082h173zm55 1368q2 43 28 75t71 34q43 2 71-29t26-77q-2-44-28.5-75.5T361 1263q-44-2-71 29t-25 76z"/><glyph unicode="j" horiz-adv-x="454" d="M388 1082L183-128q-22-162-91.5-238.5T-91-440q-43 2-103 20l15 148q47-11 69-11 89 0 115 130l210 1235h173zm-39 395q42 2 70-28t26-79q-2-43-28-74.5t-72-32.5q-45-2-71 29.5t-24 74.5 27.5 75.5T349 1477z"/><glyph unicode="k" horiz-adv-x="905" d="M380 492L263 379 197 0H24l267 1536h173L306 629l398 453h221L503 620 768 0H579z"/><glyph unicode="l" horiz-adv-x="465" d="M210 0H37l267 1536h173z"/><glyph unicode="m" horiz-adv-x="1505" d="M373 1083l-21-101q115 124 266 120 79-2 138.5-41T841 946q129 159 295 157 109-3 172-69t73-184q6-69-1-139L1261 0h-171l118 713 3 84q-2 71-37.5 110.5T1072 947q-79 2-142-64t-77-157v-5L730 0H556l119 712q4 40 2 82-7 147-136 152-123 2-205-134L196 0H24l188 1082z"/><glyph unicode="n" horiz-adv-x="971" d="M373 1083l-23-118q118 139 268 137 103-1 163.5-70T850 844q4-69-3-135L729 0H557l119 712 4 79q0 153-126 156-103 3-192-117l-30-43L196 0H23l188 1082z"/><glyph unicode="o" horiz-adv-x="1007" d="M94 589q33 233 159.5 375.5T573 1102q120-3 200-69.5T887.5 849 906 591l-12-102q-33-232-160-373T415-20q-120 3-200 69T100.5 232 82 489zm155-173q-3-134 41.5-208T425 130q116-5 192 82.5T719 475l15 117 5 72q3 135-42.5 209T562 951q-118 5-196.5-97.5T264 569l-12-99z"/><glyph unicode="p" horiz-adv-x="990" d="M453-21q-154 4-232 125l-97-520H-48l260 1498 155 1-20-121q110 143 263 141 144-2 215-107.5T890 703q-3-87-23-227t-59-235Q698-28 453-21zm265 766q-15 198-170 201-118 3-210-127l-97-565q48-118 166-124 117-5 192 83t99 274 20 258z"/><glyph unicode="q" horiz-adv-x="1004" d="M519 1102q152-4 224-127l33 107h159L675-416H502l98 511Q496-24 358-20 215-18 141.5 88T71 377q1 84 22.5 230T161 857q113 252 358 245zM243 336q10-203 168-206 113-3 207 119l100 583q-53 114-162 119-118 5-193-84t-99.5-271.5T243 336z"/><glyph unicode="r" horiz-adv-x="614" d="M623 917q-43 9-77 9-131 0-216-151L196 0H23l188 1082 167 1-24-111q95 135 214 132 24-1 74-15z"/><glyph unicode="s" horiz-adv-x="915" d="M587 285q13 95-106 158l-134 70q-104 58-145.5 123T165 787q8 137 112 227t254 88q145-4 227-95.5T834 773H663q2 81-36 127.5T521 949q-77 0-127-43.5T334 793q-12-81 79-133l169-86q187-104 177-276-10-147-118-234.5T378-20q-149 2-242 97.5T49 324l174-1q-2-94 41-142.5T386 132q83 0 137.5 42T587 285z"/><glyph unicode="t" horiz-adv-x="597" d="M483 1344l-46-262h159l-25-143H413L299 266l-2-40q-4-85 61-85 24-1 72 10L415 0q-56-20-113-18-91 0-137 75t-34 212l110 670H80l26 143h159l46 262h172z"/><glyph unicode="u" horiz-adv-x="970" d="M584 95Q479-25 325-21q-115 2-176.5 84T87 292l5 91 117 699h171L264 380l-4-73q-4-73 23.5-120.5T366 137q145-7 238 143l138 802h173L728 0H565z"/><glyph unicode="v" horiz-adv-x="860" d="M372 271l325 811h182L398 0H269L123 1082h170z"/><glyph unicode="w" horiz-adv-x="1301" d="M858 313l293 769h176L882 0H744l-69 772L341 0H202l-68 1082h165l32-748 325 748h137z"/><glyph unicode="x" horiz-adv-x="882" d="M441 689l241 393h209L515 538 719 0H530L409 404 160 0H-49l385 556-198 526h189z"/><glyph unicode="y" horiz-adv-x="837" d="M359 297l328 785h189L316-168q-57-136-135.5-205.5T10-440q-31 1-98 18l17 150 37-6q131-6 204 134l73 164-122 1062h182z"/><glyph unicode="z" horiz-adv-x="882" d="M216 151h501L690 0H-13l25 146 611 783H151l28 153h680l-25-141z"/><glyph unicode="{" horiz-adv-x="618" d="M394-365Q186-280 159-47q-8 75 1 146l28 207 4 82q-4 140-128 153l16 145q177 10 210 238l30 223q51 348 362 452l24-117q-178-76-215-350l-32-233q-35-194-191-288 89-79 95-222l-3-84Q327 53 324 0q-11-190 111-251z"/><glyph unicode="|" horiz-adv-x="494" d="M179-270H33l270 1726h146z"/><glyph unicode="}" horiz-adv-x="618" d="M-96-251Q83-176 121 99l31 227q34 203 203 294-99 72-106 220-2 43 2 85 34 251 37 306 7 191-113 251l44 113q102-41 161-122t72-195q7-71-1-146l-30-224-2-65q0-142 128-153l-16-145q-179-10-210.5-244T283 40Q218-272-71-368z"/><glyph unicode="~" horiz-adv-x="1181" d="M1075 777q-10-104-55-195.5t-110.5-137T766 401q-64 2-122 37T507 573q-53 67-107 67-120 3-153-201l-148-3q10 102 51.5 188t107 133.5T408 803q121-3 232-140 47-61 75-80t58-19q61-1 103.5 53.5T935 776z"/><glyph unicode="¡" horiz-adv-x="470" d="M170 684h157L158-360H-23zm227 314q-2-44-28.5-76T297 888q-43-2-71 29t-26 78q2 43 28.5 74.5T300 1102q43 2 71-28.5t26-75.5z"/><glyph unicode="¢" horiz-adv-x="963" d="M424 129q79-2 139.5 57.5T648 340l163 1q-21-131-108.5-225.5T478-12l-46-233H260L307-6Q206 28 149 125.5T88 365q-7 175 38.5 335.5t138 259.5T487 1091l45 227h172l-45-226q109-33 167-135.5T879 709H717q3 110-39.5 174.5T560 951q-137 5-215-134t-89-387v-70q3-112 47-170.5T424 129z"/><glyph unicode="£" horiz-adv-x="1025" d="M403 622l-29-218q-24-149-101-250l600 3L844 0H-9l23 156 56-2q47 21 77 78.5T193 402l31 220H96l28 157h123l33 253q27 207 147 328t289 116q145-3 224.5-107.5T1011 1086l-179 1q8 106-29.5 168T687 1320q-87 3-149-76.5T458 1025l-32-246h253l-28-157H403z"/><glyph unicode="¤" horiz-adv-x="1426" d="M996 110Q809-24 619-20q-199 4-335 130L127-26 18 118l159 134q-30 85-40 172-19 150 25.5 294.5T311 980l-117 157 141 127 114-148q179 122 361 118 188-2 325-121l175 152 111-146-173-147q32-87 44-176 18-144-22.5-285T1130 250l115-150-143-127zM304 599q-15-114 22-218t116.5-165.5T630 150q117-4 224.5 59t180 174 88.5 234q14 115-22.5 218T985 998.5 798 1063q-118 4-226-59T392 831t-88-232z"/><glyph unicode="¥" horiz-adv-x="931" d="M498 834l342 622h206L625 736h199l-22-125H549l-29-165h254l-22-124H499L443 0H263l56 322H70l23 124h247l29 165H121l22 125h210l-171 720h192z"/><glyph unicode="¦" horiz-adv-x="486" d="M-9-270l138 791h182L173-270H-9zm350 968H159l132 758h182z"/><glyph unicode="§" horiz-adv-x="1077" d="M938 439q-17-190-201-286 83-105 69-273-15-174-141.5-277T354-496q-185 4-285.5 119.5T-19-64l172 2q-9-126 46-202.5T363-343q105-2 180 59t89 162Q650 14 490 89l-83 37q-185 75-256 173T93 543q17 185 197 285-82 107-66 274 15 170 142 274t310 100q177-4 270.5-117t80.5-314H856q10 124-40.5 200.5T666 1325q-105 2-179-58t-88-162q-20-142 126-211l92-39q185-71 259-170.5T938 439zM418 742q-129-50-150-197-21-148 126-218l212-89q136 56 158 198 18 136-130 214l-58 28z"/><glyph unicode="¨" horiz-adv-x="840" d="M218 1369q1 46 30 76.5t77 32.5q46 1 76.5-28.5T431 1373q0-46-30-76t-77-32q-47-1-76.5 28t-29.5 76zm417-2q1 46 30 77t76 33q48 1 78-28.5t29-77.5q0-47-30-76.5t-77-31.5q-46-1-76.5 28t-29.5 76z"/><glyph unicode="©" horiz-adv-x="1571" d="M1093 597q-14-151-107-234.5T744 283q-145 4-225 112t-66 275l10 98q20 189 123.5 298.5T847 1174q142-4 219.5-85.5T1138 859l-143 1q6 85-28.5 134T842 1045q-95 2-158.5-70.5t-78-200T592 617l2-35q7-77 46.5-122T748 412q170-7 205 184zm-863-27q22-207 152-338.5T702 98q187-4 353.5 107.5t258 302T1385 888q-22 205-150 334t-321 134q-189 4-355.5-108T301 948t-71-378zM119 722q22 199 136 377t289 279.5 369 97.5q178-2 320-100t213-271.5 50-369.5q-23-203-137-380T1073 78 713-21h-10Q520-17 380 81T169 352.5 119 722z"/><glyph unicode="ª" horiz-adv-x="797" d="M543 703v69q-77-82-167-82-88 0-137.5 62.5T193 910q5 116 87.5 178t220.5 62l82-1 10 54 4 43q0 89-64 91-94 2-120-105l-148 11q10 107 85 171.5t186 62.5q103-3 159-73.5t50-187.5l-1-16-48-314q-8-46-9-91-2-45 3-91zM416 826q57 0 127 62l29 149h-67q-65-2-108.5-34.5T346 915q-5-38 12-63.5t58-25.5z"/><glyph unicode="«" horiz-adv-x="840" d="M247 537l132-386H265L86 538l2 20 303 389h137zm275 0l132-386H540L361 538l2 20 303 389h137z"/><glyph unicode="¬" horiz-adv-x="978" d="M769 375H595l46 264H129l29 161h685z"/><glyph unicode="­" horiz-adv-x="503" d="M437 543H35l27 151h402z"/><glyph unicode="®" horiz-adv-x="1572" d="M118 722q22 199 136 377t289 279.5 369 97.5q175-2 316.5-97.5t215-269T1495 735q-23-204-138-381.5T1068.5 75 703-22q-179 4-319 99.5T170.5 348 118 722zm111-153q12-131 76.5-241t167-169T701 97q187-4 352 106t258 300 74 385q-14 133-78.5 241t-166 166-227.5 61q-185 4-350-103T303.5 955.5 229 569zm425 85l-53-338H463l133 849 257-1q139-5 213.5-69.5T1134 916q-3-58-37-106t-115-94q77-44 86-141l-1-61q-11-87-9-118l3-64-2-17H921q-6 37-4 73l7 72 6 54q7 66-17 100.5T821 653zm19 128l143-1q72 2 122.5 36.5T998 910q10 63-22.5 94T854 1038H714z"/><glyph unicode="¯" horiz-adv-x="833" d="M811 1302H246l23 143h564z"/><glyph unicode="°" horiz-adv-x="752" d="M236 1207q4 111 84.5 191.5T504 1477q97-2 160.5-76.5T726 1225q-4-112-83.5-190T461 959q-98 2-163.5 74.5T236 1207zm121 2q-6-49 24.5-85.5T461 1087q54 0 96.5 40t48.5 96q6 48-22 87.5t-80 39.5q-54 0-97.5-42.5T357 1209z"/><glyph unicode="±" horiz-adv-x="943" d="M601 854h289l-25-151H578l-65-414H358l65 414H117l24 151h305l65 413h155zM719 0H37l24 152h682z"/><glyph unicode="²" d="M593 667H95l20 117 271 264 38 40q77 81 87 150l1 37q-7 67-66 67-97 0-125-135l-146-1q13 118 87 191.5t183 71.5q100 0 161-62.5t55-167.5q-4-64-38.5-124T507 977L310 795h306z"/><glyph unicode="³" d="M321 1125h69q53 3 88 33.5t42 84.5q5 41-13 68.5t-63 28.5q-78 0-109-92l-147-1q10 100 80 162t174 60q103-2 166-61t57-158q-7-115-138-184 97-43 92-171-4-107-82-174t-194-65q-106 2-166 66.5T119 890h143q-2-103 89-105 52 0 86.5 33t41.5 84q12 103-93 107h-75z"/><glyph unicode="´" horiz-adv-x="633" d="M447 1536h231l-306-294H213z"/><glyph unicode="µ" horiz-adv-x="1000" d="M398 1082L296 458q-11-87-12-126-5-200 115-203 136-5 218 134l142 819h174L745 0H591l17 102Q516-22 394-22q-108 2-169 70l-87-464H-34l260 1498h172z"/><glyph unicode="¶" horiz-adv-x="873" d="M434 0l96 521h-59q-113 2-192 61.5t-114.5 164T141 980q20 213 149 345t320 132l251-1L608 0H434z"/><glyph unicode="·" horiz-adv-x="493" d="M156 726q1 47 28 80.5t76 35.5q44 2 73.5-29t29.5-81q0-47-28-79.5T259 618q-43-2-73 28t-30 80z"/><glyph unicode="¸" horiz-adv-x="465" d="M156 0l-19-55q47-13 72.5-55.5T233-218q-3-99-76.5-156.5T-50-437l5 108q132 11 145 107 10 67-67 81l-42 7L33 0h123z"/><glyph unicode="¹" d="M444 667H298l104 597-181-56 24 135 310 113h21z"/><glyph unicode="º" horiz-adv-x="810" d="M536 1477q122-3 189-101.5t55-252.5l-8-80q-20-163-108-260t-218-94q-123 3-190 103t-55 251l7 68q17 168 107 269t221 97zm-183-436l-1-65q0-66 27.5-107t76.5-42q66-2 110 58t54.5 165.5T631 1190q-2 66-28.5 106t-75.5 42q-69 2-113-61t-55-173z"/><glyph unicode="»" horiz-adv-x="840" d="M280 949l179-388-2-20-303-389H15l281 408-132 389h116zm294 0l179-388-2-20-303-389H309l281 408-132 389h116z"/><glyph unicode="¼" horiz-adv-x="1276" d="M405 664H259l104 597-181-56 24 135 310 113h21zm-93-544l-89 72 770 1128 91-72zm739 178l88 1-24-130h-81L1004 0H859l30 169H590l14 112 384 507 148 1zm-295 1h155l55 281-14-20z"/><glyph unicode="½" horiz-adv-x="1356" d="M276 120l-89 72 770 1128 91-72zm128 544H258l104 597-181-56 24 135 310 113h21zM1137 0H639l20 117 271 264 38 40q77 81 87 150l1 37q-7 67-66 67-97 0-125-135l-146-1q13 118 87 191.5T989 802q100 0 161-62.5t55-167.5q-4-64-38.5-124T1051 310L854 128h306z"/><glyph unicode="¾" horiz-adv-x="1348" d="M410 120l-89 72 770 1128 91-72zm708 178l88 1-24-130h-81L1071 0H926l30 169H657l14 112 384 507 148 1zm-295 1h155l55 281-14-20zm-461 826h69q53 3 88 33.5t42 84.5q5 41-13 68.5t-63 28.5q-78 0-109-92l-147-1q10 100 80 162t174 60q103-2 166-61t57-158q-7-115-138-184 97-43 92-171-4-107-82-174t-194-65q-106 2-166 66.5T160 890h143q-2-103 89-105 52 0 86.5 33t41.5 84q12 103-93 107h-75z"/><glyph unicode="¿" horiz-adv-x="847" d="M525 681q-12-104-53.5-188t-140-192T200 135Q140 31 149-85q11-139 132-142 75-2 129 55t71 151l170 1q-20-167-124.5-268.5T269-386q-152 4-231 106T-26-14q15 173 176 350l107 113q77 88 99 231zm66 317q-2-43-27.5-75.5T492 889q-42-2-70 28t-26 78q2 44 28.5 74.5T496 1102q42 2 69.5-28.5T591 998z"/><glyph unicode="À" horiz-adv-x="1155" d="M776 380H300L124 0H-66l707 1456h154L998 0H821zM374 538h383l-77 660zm466 1014H698l-205 294h205z"/><glyph unicode="Á" horiz-adv-x="1155" d="M776 380H300L124 0H-66l707 1456h154L998 0H821zM374 538h383l-77 660zm496 1308h231l-306-294H636z"/><glyph unicode="Â" horiz-adv-x="1155" d="M776 380H300L124 0H-66l707 1456h154L998 0H821zM374 538h383l-77 660zm628 1036v-14l-138 2-84 169-148-168-140-2v14l242 271h99z"/><glyph unicode="Ã" horiz-adv-x="1155" d="M776 380H300L124 0H-66l707 1456h154L998 0H821zM374 538h383l-77 660zm697 1277q-11-111-63.5-179T873 1570q-33 0-58.5 16t-49.5 35-49 33.5-56 13.5q-67-3-97-112l-112 7q11 110 65 180t136 68q46-2 107-51.5t107-47.5q67 3 98 113z"/><glyph unicode="Ä" horiz-adv-x="1155" d="M776 380H300L124 0H-66l707 1456h154L998 0H821zM374 538h383l-77 660zm75 1141q1 46 30 76.5t77 32.5q46 1 76.5-28.5T662 1683q0-46-30-76t-77-32q-47-1-76.5 28t-29.5 76zm417-2q1 46 30 77t76 33q48 1 78-28.5t29-77.5q0-47-30-76.5t-77-31.5q-46-1-76.5 28t-29.5 76z"/><glyph unicode="Å" horiz-adv-x="1155" d="M776 380H300L124 0H-66l707 1456h154L998 0H821zM374 538h383l-77 660zm191 1183q2 91 66.5 154t153.5 63q82 0 139.5-58t57.5-143q-2-89-66.5-151T762 1524q-84 0-141.5 57T565 1721zm96 2q-4-46 23-77.5t70-31.5q46 0 85.5 35.5T885 1735q6 46-22 79t-70 33q-46 0-86-36.5t-46-87.5z"/><glyph unicode="Æ" horiz-adv-x="1623" d="M1464 0H723l49 353H334L109 0h-221l970 1456h809l-27-152h-563l-65-471h481l-27-151H991l-74-531h574zM444 527h352l100 711z"/><glyph unicode="Ç" horiz-adv-x="1136" d="M1007 463q-33-228-169.5-358.5T492-20q-116 3-201 61T160.5 209 113 454q-1 71 8 139l40 257q47 299 198 465t376 161q186-3 283.5-131.5T1107 987l-180 1q4 124-15.5 189T847 1279.5 724 1319q-150 5-248-113.5T342 851l-40-259q-15-105-10-191 8-131 62.5-197T502 135q131-5 210.5 69T831 461zM530-9l-19-55q47-13 72.5-55.5T607-227q-3-99-76.5-156.5T324-446l5 108q132 11 145 107 10 67-67 81l-42 7L407-9h123z"/><glyph unicode="È" horiz-adv-x="996" d="M843 673H344l-90-516h582L808 0H48l252 1456h752l-28-158H452l-82-468h500zm-53 891H648l-205 294h205z"/><glyph unicode="É" horiz-adv-x="996" d="M843 673H344l-90-516h582L808 0H48l252 1456h752l-28-158H452l-82-468h500zm-23 1185h231l-306-294H586z"/><glyph unicode="Ê" horiz-adv-x="996" d="M843 673H344l-90-516h582L808 0H48l252 1456h752l-28-158H452l-82-468h500zm109 913v-14l-138 2-84 169-148-168-140-2v14l242 271h99z"/><glyph unicode="Ë" horiz-adv-x="996" d="M843 673H344l-90-516h582L808 0H48l252 1456h752l-28-158H452l-82-468h500zM399 1691q1 46 30 76.5t77 32.5q46 1 76.5-28.5T612 1695q0-46-30-76t-77-32q-47-1-76.5 28t-29.5 76zm417-2q1 46 30 77t76 33q48 1 78-28.5t29-77.5q0-47-30-76.5t-77-31.5q-46-1-76.5 28t-29.5 76z"/><glyph unicode="Ì" horiz-adv-x="507" d="M234 0H55l253 1456h179zm280 1564H372l-205 294h205z"/><glyph unicode="Í" horiz-adv-x="507" d="M234 0H55l253 1456h179zm309 1858h231l-306-294H309z"/><glyph unicode="Î" horiz-adv-x="507" d="M234 0H55l253 1456h179zm442 1586v-14l-138 2-84 169-148-168-140-2v14l242 271h99z"/><glyph unicode="Ï" horiz-adv-x="507" d="M234 0H55l253 1456h179zM123 1691q1 46 30 76.5t77 32.5q46 1 76.5-28.5T336 1695q0-46-30-76t-77-32q-47-1-76.5 28t-29.5 76zm417-2q1 46 30 77t76 33q48 1 78-28.5t29-77.5q0-47-30-76.5t-77-31.5q-46-1-76.5 28t-29.5 76z"/><glyph unicode="Ð" horiz-adv-x="1174" d="M78 0l115 666H28l27 151h164l111 639 326-1q231-5 345-170.5t80-434.5l-35-234q-45-299-211-458T413 0H78zm477 666H372l-88-509 131-1q186-2 302 111.5T868 610l37 244q10 79 8 157-5 133-71.5 207.5T651 1297l-169 1-84-481h184z"/><glyph unicode="Ñ" horiz-adv-x="1240" d="M972 0H797L424 1130 228 0H48l252 1456h175L849 321l197 1135h178zm134 1815q-11-111-63.5-179T908 1570q-33 0-58.5 16t-49.5 35-49 33.5-56 13.5q-67-3-97-112l-112 7q11 110 65 180t136 68q46-2 107-51.5t107-47.5q67 3 98 113z"/><glyph unicode="Ò" horiz-adv-x="1203" d="M506-20q-182 4-284.5 130T116 455q-1 73 8 145l42 272q50 290 196.5 449.5T732 1476q171-4 271-113t116-310l3-54q0-74-9-146l-43-277q-51-291-196-446T506-20zm429 877l9 97q10 175-47 264.5T721 1312q-149 5-245-106.5T343 874l-43-289-7-81q-10-171 47.5-264.5T517 142q293-9 371 409zm-71 697H722l-205 294h205z"/><glyph unicode="Ó" horiz-adv-x="1203" d="M506-20q-182 4-284.5 130T116 455q-1 73 8 145l42 272q50 290 196.5 449.5T732 1476q171-4 271-113t116-310l3-54q0-74-9-146l-43-277q-51-291-196-446T506-20zm429 877l9 97q10 175-47 264.5T721 1312q-149 5-245-106.5T343 874l-43-289-7-81q-10-171 47.5-264.5T517 142q293-9 371 409zm-41 991h231l-306-294H660z"/><glyph unicode="Ô" horiz-adv-x="1203" d="M506-20q-182 4-284.5 130T116 455q-1 73 8 145l42 272q50 290 196.5 449.5T732 1476q171-4 271-113t116-310l3-54q0-74-9-146l-43-277q-51-291-196-446T506-20zm429 877l9 97q10 175-47 264.5T721 1312q-149 5-245-106.5T343 874l-43-289-7-81q-10-171 47.5-264.5T517 142q293-9 371 409zm91 719v-14l-138 2-84 169-148-168-140-2v14l242 271h99z"/><glyph unicode="Õ" horiz-adv-x="1203" d="M506-20q-182 4-284.5 130T116 455q-1 73 8 145l42 272q50 290 196.5 449.5T732 1476q171-4 271-113t116-310l3-54q0-74-9-146l-43-277q-51-291-196-446T506-20zm429 877l9 97q10 175-47 264.5T721 1312q-149 5-245-106.5T343 874l-43-289-7-81q-10-171 47.5-264.5T517 142q293-9 371 409zm160 960q-11-111-63.5-179T897 1572q-33 0-58.5 16t-49.5 35-49 33.5-56 13.5q-67-3-97-112l-112 7q11 110 65 180t136 68q46-2 107-51.5t107-47.5q67 3 98 113z"/><glyph unicode="Ö" horiz-adv-x="1203" d="M506-20q-182 4-284.5 130T116 455q-1 73 8 145l42 272q50 290 196.5 449.5T732 1476q171-4 271-113t116-310l3-54q0-74-9-146l-43-277q-51-291-196-446T506-20zm429 877l9 97q10 175-47 264.5T721 1312q-149 5-245-106.5T343 874l-43-289-7-81q-10-171 47.5-264.5T517 142q293-9 371 409zm-462 824q1 46 30 76.5t77 32.5q46 1 76.5-28.5T686 1685q0-46-30-76t-77-32q-47-1-76.5 28t-29.5 76zm417-2q1 46 30 77t76 33q48 1 78-28.5t29-77.5q0-47-30-76.5t-77-31.5q-46-1-76.5 28t-29.5 76z"/><glyph unicode="×" horiz-adv-x="945" d="M44 338l326 334-212 337 124 115 206-330 321 329 94-132-329-337 211-334-123-115-205 327-318-326z"/><glyph unicode="Ø" horiz-adv-x="1203" d="M505-21q-134 4-233 80L164-93 25-92l168 234q-86 172-76 402 4 97 27.5 246t78.5 283q83 200 213.5 303.5T733 1476q173-4 277-120l114 160 139-1-185-258q38-118 43-240 6-171-34.5-383.5T962 271.5 762 49 505-21zM289 496q-5-93 13-184l606 887q-61 108-185 114-97 4-178.5-54T406 1078.5 321.5 786 289 496zm663 568L365 206q57-61 149-65 155-5 257.5 129.5T915 667t37 397z"/><glyph unicode="Ù" horiz-adv-x="1126" d="M1156 1456L981 431Q952 217 818 95.5T481-22q-193 4-292.5 124.5T112 430l174 1026h178L290 429q-7-60-1-112 17-175 202-181 127-5 206 66.5T800 417l176 1039h180zm-334 96H680l-205 294h205z"/><glyph unicode="Ú" horiz-adv-x="1126" d="M1156 1456L981 431Q952 217 818 95.5T481-22q-193 4-292.5 124.5T112 430l174 1026h178L290 429q-7-60-1-112 17-175 202-181 127-5 206 66.5T800 417l176 1039h180zm-304 390h231l-306-294H618z"/><glyph unicode="Û" horiz-adv-x="1126" d="M1156 1456L981 431Q952 217 818 95.5T481-22q-193 4-292.5 124.5T112 430l174 1026h178L290 429q-7-60-1-112 17-175 202-181 127-5 206 66.5T800 417l176 1039h180zm-172 118v-14l-138 2-84 169-148-168-140-2v14l242 271h99z"/><glyph unicode="Ü" horiz-adv-x="1126" d="M1156 1456L981 431Q952 217 818 95.5T481-22q-193 4-292.5 124.5T112 430l174 1026h178L290 429q-7-60-1-112 17-175 202-181 127-5 206 66.5T800 417l176 1039h180zm-725 223q1 46 30 76.5t77 32.5q46 1 76.5-28.5T644 1683q0-46-30-76t-77-32q-47-1-76.5 28t-29.5 76zm417-2q1 46 30 77t76 33q48 1 78-28.5t29-77.5q0-47-30-76.5t-77-31.5q-46-1-76.5 28t-29.5 76z"/><glyph unicode="Ý" horiz-adv-x="1052" d="M537 727l416 729h211L597 532 505 0H326l97 554-241 902h194zm281 1119h231l-306-294H584z"/><glyph unicode="Þ" horiz-adv-x="1033" d="M471 1456l-52-293 199-1q171-6 264-121t78-295q-16-192-143-313T495 312l-222 1L218 0H45l253 1456h173zm-71-443L298 465l201-2q91 1 161 51t104.5 139T788 840q-10 76-54.5 121T615 1010l-213 2z"/><glyph unicode="ß" horiz-adv-x="1047" d="M196 0H24l190 1111q29 211 130.5 329T604 1555q141-4 213.5-94t60.5-236q-4-48-19-90t-66-132.5-63-123-18-69.5l-3-23q-6-86 90.5-213.5T902 359v-33Q892 165 794.5 70T544-21q-147 2-245 75l56 154q88-78 177-78 84 0 136.5 51T731 315q7 54-14 108t-78.5 131.5-81 137.5T540 811q4 42 18 79t73.5 134 72 146 9.5 106q-3 58-32.5 92.5T600 1406q-175 6-215-294z"/><glyph unicode="à" horiz-adv-x="962" d="M578 0q-6 30-5 59l4 59Q462-21 329-21q-130 0-202.5 84.5T62 287q11 168 138.5 269T535 657h120l17 115q18 179-135 179-79 0-131.5-46.5T339 783l-171-1q13 137 124.5 230t262.5 91q146-2 224.5-89.5T843 769l-88-533q-9-57-7-109l6-110-2-17H578zM365 139q130 0 224 127l45 259-79 1q-102 0-181-37.5t-111.5-104T240 240q13-101 125-101zm339 1103H562l-205 294h205z"/><glyph unicode="á" horiz-adv-x="962" d="M578 0q-6 30-5 59l4 59Q462-21 329-21q-130 0-202.5 84.5T62 287q11 168 138.5 269T535 657h120l17 115q18 179-135 179-79 0-131.5-46.5T339 783l-171-1q13 137 124.5 230t262.5 91q146-2 224.5-89.5T843 769l-88-533q-9-57-7-109l6-110-2-17H578zM365 139q130 0 224 127l45 259-79 1q-102 0-181-37.5t-111.5-104T240 240q13-101 125-101zm369 1397h231l-306-294H500z"/><glyph unicode="â" horiz-adv-x="962" d="M578 0q-6 30-5 59l4 59Q462-21 329-21q-130 0-202.5 84.5T62 287q11 168 138.5 269T535 657h120l17 115q18 179-135 179-79 0-131.5-46.5T339 783l-171-1q13 137 124.5 230t262.5 91q146-2 224.5-89.5T843 769l-88-533q-9-57-7-109l6-110-2-17H578zM365 139q130 0 224 127l45 259-79 1q-102 0-181-37.5t-111.5-104T240 240q13-101 125-101zm501 1125v-14l-138 2-84 169-148-168-140-2v14l242 271h99z"/><glyph unicode="ã" horiz-adv-x="962" d="M578 0q-6 30-5 59l4 59Q462-21 329-21q-130 0-202.5 84.5T62 287q11 168 138.5 269T535 657h120l17 115q18 179-135 179-79 0-131.5-46.5T339 783l-171-1q13 137 124.5 230t262.5 91q146-2 224.5-89.5T843 769l-88-533q-9-57-7-109l6-110-2-17H578zM365 139q130 0 224 127l45 259-79 1q-102 0-181-37.5t-111.5-104T240 240q13-101 125-101zm570 1366q-11-111-63.5-179T737 1260q-33 0-58.5 16t-49.5 35-49 33.5-56 13.5q-67-3-97-112l-112 7q11 110 65 180t136 68q46-2 107-51.5t107-47.5q67 3 98 113z"/><glyph unicode="ä" horiz-adv-x="962" d="M578 0q-6 30-5 59l4 59Q462-21 329-21q-130 0-202.5 84.5T62 287q11 168 138.5 269T535 657h120l17 115q18 179-135 179-79 0-131.5-46.5T339 783l-171-1q13 137 124.5 230t262.5 91q146-2 224.5-89.5T843 769l-88-533q-9-57-7-109l6-110-2-17H578zM365 139q130 0 224 127l45 259-79 1q-102 0-181-37.5t-111.5-104T240 240q13-101 125-101zm-52 1230q1 46 30 76.5t77 32.5q46 1 76.5-28.5T526 1373q0-46-30-76t-77-32q-47-1-76.5 28t-29.5 76zm417-2q1 46 30 77t76 33q48 1 78-28.5t29-77.5q0-47-30-76.5t-77-31.5q-46-1-76.5 28t-29.5 76z"/><glyph unicode="å" horiz-adv-x="962" d="M578 0q-6 30-5 59l4 59Q462-21 329-21q-130 0-202.5 84.5T62 287q11 168 138.5 269T535 657h120l17 115q18 179-135 179-79 0-131.5-46.5T339 783l-171-1q13 137 124.5 230t262.5 91q146-2 224.5-89.5T843 769l-88-533q-9-57-7-109l6-110-2-17H578zM365 139q130 0 224 127l45 259-79 1q-102 0-181-37.5t-111.5-104T240 240q13-101 125-101zm64 1272q2 91 66.5 154t153.5 63q82 0 139.5-58t57.5-143q-2-89-66.5-151T626 1214q-84 0-141.5 57T429 1411zm96 2q-4-46 23-77.5t70-31.5q46 0 85.5 35.5T749 1425q6 46-22 79t-70 33q-46 0-86-36.5t-46-87.5z"/><glyph unicode="æ" horiz-adv-x="1456" d="M959-20q-100 2-178.5 47T660 152Q511-24 285-20 161-18 93 68.5T34 296q11 160 122 250t292 90l181-1 12 86q4 34 3 74-4 72-35.5 113.5T520 951q-80 2-137-53.5T313 759l-171 19q15 146 124.5 236.5T533 1103q88-2 155.5-41T788 950q137 156 294 153 94-3 162-48.5t103-133 37-194.5q1-57-6-112l-18-118H781q-7-54-5-117 2-112 51-179t139-70q128-3 269 105l48-136q-51-58-137.5-89T959-20zM327 129q102-3 235 118l45 248-159 1q-96-2-162.5-59T209 292q-9-75 23-118t95-45zm742 823q-86 3-154-70.5T797 640h411q12 77 11 125l-3 36q-20 146-147 151z"/><glyph unicode="ç" horiz-adv-x="928" d="M414 129q85-3 143 53t81 158l163 1Q778 181 666 78T404-21q-143 3-228 86T74 298q-10 90 1 181l14 109q33 253 154.5 386T560 1102q150-4 232.5-110T868 709l-163 1q6 235-155 241-235 9-284-335-31-213-25-290 10-194 173-197zm3-138l-19-55q47-13 72.5-55.5T494-227q-3-99-76.5-156.5T211-446l5 108q132 11 145 107 10 67-67 81l-42 7L294-9h123z"/><glyph unicode="è" horiz-adv-x="940" d="M427-20q-182 2-272 131T89 463l13 107q31 252 153.5 394.5T567 1102q154-4 231.5-105.5T872 711l-9-120-15-103-580 1q-13-90-12-141 2-101 50-158.5T443 131q64-2 126.5 25.5T701 253l81-113Q718 56 624 17T427-20zm129 971q-177 8-248-214l-27-97 415-1 5 26q6 46 6 96-4 182-151 190zm122 291H536l-205 294h205z"/><glyph unicode="é" horiz-adv-x="940" d="M427-20q-182 2-272 131T89 463l13 107q31 252 153.5 394.5T567 1102q154-4 231.5-105.5T872 711l-9-120-15-103-580 1q-13-90-12-141 2-101 50-158.5T443 131q64-2 126.5 25.5T701 253l81-113Q718 56 624 17T427-20zm129 971q-177 8-248-214l-27-97 415-1 5 26q6 46 6 96-4 182-151 190zm152 585h231l-306-294H474z"/><glyph unicode="ê" horiz-adv-x="940" d="M427-20q-182 2-272 131T89 463l13 107q31 252 153.5 394.5T567 1102q154-4 231.5-105.5T872 711l-9-120-15-103-580 1q-13-90-12-141 2-101 50-158.5T443 131q64-2 126.5 25.5T701 253l81-113Q718 56 624 17T427-20zm129 971q-177 8-248-214l-27-97 415-1 5 26q6 46 6 96-4 182-151 190zm284 313v-14l-138 2-84 169-148-168-140-2v14l242 271h99z"/><glyph unicode="ë" horiz-adv-x="940" d="M427-20q-182 2-272 131T89 463l13 107q31 252 153.5 394.5T567 1102q154-4 231.5-105.5T872 711l-9-120-15-103-580 1q-13-90-12-141 2-101 50-158.5T443 131q64-2 126.5 25.5T701 253l81-113Q718 56 624 17T427-20zm129 971q-177 8-248-214l-27-97 415-1 5 26q6 46 6 96-4 182-151 190zm-269 418q1 46 30 76.5t77 32.5q46 1 76.5-28.5T500 1373q0-46-30-76t-77-32q-47-1-76.5 28t-29.5 76zm417-2q1 46 30 77t76 33q48 1 78-28.5t29-77.5q0-47-30-76.5t-77-31.5q-46-1-76.5 28t-29.5 76z"/><glyph unicode="ì" horiz-adv-x="477" d="M210 0H37l188 1082h173zm233 1241H301L96 1535h205z"/><glyph unicode="í" horiz-adv-x="477" d="M210 0H37l188 1082h173zm262 1535h231l-306-294H238z"/><glyph unicode="î" horiz-adv-x="477" d="M210 0H37l188 1082h173zm395 1263v-14l-138 2-84 169-148-168-140-2v14l242 271h99z"/><glyph unicode="ï" horiz-adv-x="477" d="M210 0H37l188 1082h173zM52 1368q1 46 30 76.5t77 32.5q46 1 76.5-28.5T265 1372q0-46-30-76t-77-32q-47-1-76.5 28T52 1368zm417-2q1 46 30 77t76 33q48 1 78-28.5t29-77.5q0-47-30-76.5t-77-31.5q-46-1-76.5 28t-29.5 76z"/><glyph unicode="ð" horiz-adv-x="1029" d="M816 1300q77-160 98-326 27-210-24-479-45-240-168.5-380.5T428-21q-165 5-254 143t-70 337q16 151 79.5 275t156 185.5T543 978q118-4 209-101 2 168-77 316l-203-144-53 110 179 125q-83 86-229 138l68 157q180-55 304-189l180 127 53-110zm-73-601q-42 121-168 127-86 4-154-50.5T313.5 615 274 394q0-118 43.5-189.5T443 129q108-5 182.5 107.5T728 564z"/><glyph unicode="ñ" horiz-adv-x="971" d="M373 1083l-23-118q118 139 268 137 103-1 163.5-70T850 844q4-69-3-135L729 0H557l119 712 4 79q0 153-126 156-103 3-192-117l-30-43L196 0H23l188 1082zm553 422q-11-111-63.5-179T728 1260q-33 0-58.5 16t-49.5 35-49 33.5-56 13.5q-67-3-97-112l-112 7q11 110 65 180t136 68q46-2 107-51.5t107-47.5q67 3 98 113z"/><glyph unicode="ò" horiz-adv-x="1007" d="M94 589q33 233 159.5 375.5T573 1102q120-3 200-69.5T887.5 849 906 591l-12-102q-33-232-160-373T415-20q-120 3-200 69T100.5 232 82 489zm155-173q-3-134 41.5-208T425 130q116-5 192 82.5T719 475l15 117 5 72q3 135-42.5 209T562 951q-118 5-196.5-97.5T264 569l-12-99zm438 826H545l-205 294h205z"/><glyph unicode="ó" horiz-adv-x="1007" d="M94 589q33 233 159.5 375.5T573 1102q120-3 200-69.5T887.5 849 906 591l-12-102q-33-232-160-373T415-20q-120 3-200 69T100.5 232 82 489zm155-173q-3-134 41.5-208T425 130q116-5 192 82.5T719 475l15 117 5 72q3 135-42.5 209T562 951q-118 5-196.5-97.5T264 569l-12-99zm468 1120h231l-306-294H483z"/><glyph unicode="ô" horiz-adv-x="1007" d="M94 589q33 233 159.5 375.5T573 1102q120-3 200-69.5T887.5 849 906 591l-12-102q-33-232-160-373T415-20q-120 3-200 69T100.5 232 82 489zm155-173q-3-134 41.5-208T425 130q116-5 192 82.5T719 475l15 117 5 72q3 135-42.5 209T562 951q-118 5-196.5-97.5T264 569l-12-99zm600 848v-14l-138 2-84 169-148-168-140-2v14l242 271h99z"/><glyph unicode="õ" horiz-adv-x="1007" d="M94 589q33 233 159.5 375.5T573 1102q120-3 200-69.5T887.5 849 906 591l-12-102q-33-232-160-373T415-20q-120 3-200 69T100.5 232 82 489zm155-173q-3-134 41.5-208T425 130q116-5 192 82.5T719 475l15 117 5 72q3 135-42.5 209T562 951q-118 5-196.5-97.5T264 569l-12-99zm669 1089q-11-111-63.5-179T720 1260q-33 0-58.5 16t-49.5 35-49 33.5-56 13.5q-67-3-97-112l-112 7q11 110 65 180t136 68q46-2 107-51.5t107-47.5q67 3 98 113z"/><glyph unicode="ö" horiz-adv-x="1007" d="M94 589q33 233 159.5 375.5T573 1102q120-3 200-69.5T887.5 849 906 591l-12-102q-33-232-160-373T415-20q-120 3-200 69T100.5 232 82 489zm155-173q-3-134 41.5-208T425 130q116-5 192 82.5T719 475l15 117 5 72q3 135-42.5 209T562 951q-118 5-196.5-97.5T264 569l-12-99zm47 953q1 46 30 76.5t77 32.5q46 1 76.5-28.5T509 1373q0-46-30-76t-77-32q-47-1-76.5 28t-29.5 76zm417-2q1 46 30 77t76 33q48 1 78-28.5t29-77.5q0-47-30-76.5t-77-31.5q-46-1-76.5 28t-29.5 76z"/><glyph unicode="÷" horiz-adv-x="1003" d="M891 600H76l32 184h816zm-421 495q1 47 28 80.5t76 35.5q44 2 74-28.5t30-81.5q-1-47-29-79t-76-34q-45-2-74 28t-29 79zM329 278q1 47 28 80.5t76 35.5q44 2 73.5-29t29.5-81q-1-47-28.5-79T432 171q-45-2-74 28t-29 79z"/><glyph unicode="ø" horiz-adv-x="1000" d="M569 1104q85-2 161-42l89 146 121-1-128-207q91-135 90-331l-7-116q-35-271-167.5-424.5T406-22q-76 2-153 35l-87-147-121 1L172 73Q75 203 77 406q0 59 6 116l3 21q35 256 164 410t319 151zM241 380q-2-72 18-142l396 683q-43 31-94 32-95 4-165-67.5T286 681t-45-301zm493 310q2 69-13 138L330 151q40-22 85-24 143-6 227.5 156.5T734 690z"/><glyph unicode="ù" horiz-adv-x="970" d="M584 95Q479-25 325-21q-115 2-176.5 84T87 292l5 91 117 699h171L264 380l-4-73q-4-73 23.5-120.5T366 137q145-7 238 143l138 802h173L728 0H565zm105 1147H547l-205 294h205z"/><glyph unicode="ú" horiz-adv-x="970" d="M584 95Q479-25 325-21q-115 2-176.5 84T87 292l5 91 117 699h171L264 380l-4-73q-4-73 23.5-120.5T366 137q145-7 238 143l138 802h173L728 0H565zm135 1441h231l-306-294H485z"/><glyph unicode="û" horiz-adv-x="970" d="M584 95Q479-25 325-21q-115 2-176.5 84T87 292l5 91 117 699h171L264 380l-4-73q-4-73 23.5-120.5T366 137q145-7 238 143l138 802h173L728 0H565zm267 1169v-14l-138 2-84 169-148-168-140-2v14l242 271h99z"/><glyph unicode="ü" horiz-adv-x="970" d="M584 95Q479-25 325-21q-115 2-176.5 84T87 292l5 91 117 699h171L264 380l-4-73q-4-73 23.5-120.5T366 137q145-7 238 143l138 802h173L728 0H565zM298 1369q1 46 30 76.5t77 32.5q46 1 76.5-28.5T511 1373q0-46-30-76t-77-32q-47-1-76.5 28t-29.5 76zm417-2q1 46 30 77t76 33q48 1 78-28.5t29-77.5q0-47-30-76.5t-77-31.5q-46-1-76.5 28t-29.5 76z"/><glyph unicode="ý" horiz-adv-x="837" d="M359 297l328 785h189L316-168q-57-136-135.5-205.5T10-440q-31 1-98 18l17 150 37-6q131-6 204 134l73 164-122 1062h182zm313 1239h231l-306-294H438z"/><glyph unicode="þ" horiz-adv-x="1020" d="M461-22Q314-18 227 89l-94-505H-39l339 1952h172L368 989q110 117 251 113 137-2 208.5-117.5T894 667l-7-110-2-16q-38-275-148.5-421.5T461-22zm259 735q-11 230-164 233-100 3-181-98l-30-40-93-545q47-129 165-133 104-4 178.5 85T704 485l8 51q11 115 8 177z"/><glyph unicode="ÿ" horiz-adv-x="837" d="M359 297l328 785h189L316-168q-57-136-135.5-205.5T10-440q-31 1-98 18l17 150 37-6q131-6 204 134l73 164-122 1062h182zM251 1369q1 46 30 76.5t77 32.5q46 1 76.5-28.5T464 1373q0-46-30-76t-77-32q-47-1-76.5 28t-29.5 76zm417-2q1 46 30 77t76 33q48 1 78-28.5t29-77.5q0-47-30-76.5t-77-31.5q-46-1-76.5 28t-29.5 76z"/><glyph unicode="ı" horiz-adv-x="477" d="M210 0H37l188 1082h173z"/><glyph unicode="Œ" horiz-adv-x="1652" d="M1384 0H702L522-18h-54q-168 4-267 128T95 442q-3 75 7 140l45 287q44 279 189.5 444T697 1478l52-2 183-20h695l-28-158h-572l-81-468h499l-28-157H919l-90-516h583zM475 133q66-3 168 9l210 1171q-80 14-161 16-145 2-241-116T321 877l-47-302-7-89q-10-167 44.5-258T475 133z"/><glyph unicode="œ" horiz-adv-x="1554" d="M90 545q21 165 88.5 297T345 1039.5t219 62.5q99-2 176-55.5T852 904l40 49q134 153 284 150 143-2 221.5-102t80.5-270l-4-87-21-147H886l-6-71q-7-135 36.5-213t131.5-82q139-4 260 106l58-127q-55-64-140.5-97.5T1041-19q-101 2-179 53T747 172Q669 70 585 23.5T405-21Q256-17 171.5 95T83 403q-2 62 5 119zm171-23q-10-81-7-156 11-231 162-238 113-5 188.5 102.5T705 531l2 22q10 81 8 158-11 233-164 240-107 4-180-92T267 572l-4-27zm901 430q-145 3-234-238l-22-65 394-1 5 28q6 42 5 90l-3 35q-21 146-145 151z"/><glyph unicode="Ÿ" horiz-adv-x="1052" d="M537 727l416 729h211L597 532 505 0H326l97 554-241 902h194zm-140 952q1 46 30 76.5t77 32.5q46 1 76.5-28.5T610 1683q0-46-30-76t-77-32q-47-1-76.5 28t-29.5 76zm417-2q1 46 30 77t76 33q48 1 78-28.5t29-77.5q0-47-30-76.5t-77-31.5q-46-1-76.5 28t-29.5 76z"/><glyph unicode="ˆ" horiz-adv-x="861" d="M786 1264v-14l-138 2-84 169-148-168-140-2v14l242 271h99z"/><glyph unicode="˚" horiz-adv-x="674" d="M259 1400q2 91 66.5 154t153.5 63q82 0 139.5-58t57.5-143q-2-89-66.5-151T456 1203q-84 0-141.5 57T259 1400zm96 2q-4-46 23-77.5t70-31.5q46 0 85.5 35.5T579 1414q6 46-22 79t-70 33q-46 0-86-36.5t-46-87.5z"/><glyph unicode="˜" horiz-adv-x="859" d="M847 1501q-11-111-63.5-179T649 1256q-33 0-58.5 16t-49.5 35-49 33.5-56 13.5q-67-3-97-112l-112 7q11 110 65 180t136 68q46-2 107-51.5t107-47.5q67 3 98 113z"/><glyph horiz-adv-x="969"/><glyph horiz-adv-x="1938"/><glyph horiz-adv-x="969"/><glyph horiz-adv-x="1938"/><glyph horiz-adv-x="646"/><glyph horiz-adv-x="484"/><glyph horiz-adv-x="323"/><glyph horiz-adv-x="323"/><glyph horiz-adv-x="242"/><glyph horiz-adv-x="387"/><glyph horiz-adv-x="107"/><glyph unicode="‐" horiz-adv-x="503" d="M437 543H35l27 151h402z"/><glyph unicode="‑" horiz-adv-x="503" d="M437 543H35l27 151h402z"/><glyph unicode="‒" horiz-adv-x="503" d="M437 543H35l27 151h402z"/><glyph unicode="–" horiz-adv-x="1147" d="M984.41 651H166.002l32.4 151h817.208z"/><glyph unicode="—" horiz-adv-x="1357" d="M1258.18 651H167l43.2 151h1089.58z"/><glyph unicode="‘" horiz-adv-x="396" d="M405 1555l94-74q-99-138-125-268l-25-140H179l15 100q36 237 211 382z"/><glyph unicode="’" horiz-adv-x="396" d="M238 1046l-93 74q100 143 125 273l25 143h171l-18-115q-37-233-210-375z"/><glyph unicode="‚" horiz-adv-x="397" d="M1-283l-94 75Q8-63 33 75l19 106h172l-15-94Q173-138 1-283z"/><glyph unicode="“" horiz-adv-x="673" d="M414 1555l94-74q-99-138-125-268l-25-140H188l15 100q36 237 211 382zm276 0l94-74q-99-138-125-268l-25-140H464l15 100q36 237 211 382z"/><glyph unicode="”" horiz-adv-x="680" d="M250 1046l-93 74q100 143 125 273l25 143h171l-18-115q-37-233-210-375zm269 0l-93 74q100 143 125 273l25 143h171l-18-115q-37-233-210-375z"/><glyph unicode="„" horiz-adv-x="658" d="M-2-301l-94 74Q7-74 33 74l30 172h172L211 96Q171-153-2-301zm260 0l-93 74Q268-74 294 74l30 172h172L471 91q-39-243-213-392z"/><glyph unicode="•" horiz-adv-x="679" d="M161 765q6 94 64.5 150.5T370 972q81 0 133.5-54.5T556 775l-2-42q-6-90-62.5-145T345 533q-82 0-133.5 53T160 724z"/><glyph unicode="…" horiz-adv-x="1183" d="M163 210q49 1 81-30t31-80-33-79.5T162-12 83 15.5 52 94t31 81.5 80 34.5zm363 0q49 1 81-30t31-80-33-79.5T525-12t-79 27.5T415 94t31 81.5 80 34.5zm345 0q49 1 81-30t31-80-33-79.5T870-12t-79 27.5T760 94t31 81.5 80 34.5z"/><glyph horiz-adv-x="387"/><glyph unicode="‹" horiz-adv-x="550" d="M259 539l132-386H277L98 540l2 20 303 389h137z"/><glyph unicode="›" horiz-adv-x="550" d="M271 949l179-388-2-20-303-389H6l281 408-132 389h116z"/><glyph unicode="⁄" horiz-adv-x="811" d="M82 112l-89 72 770 1128 91-72z"/><glyph horiz-adv-x="484"/><glyph unicode="€" horiz-adv-x="991" d="M711 541H408l-6-81q-7-148 42.5-233.5T596 139q76-3 182 32l6-163q-98-27-196-26-168 4-261.5 119.5T230 411q-1 66 8 131l-149-1 22 124h141l24 137H135l21 125h135q40 188 116.5 312.5T587 1422t231 56q82-2 205-33l-37-162q-89 36-173 38-256 6-344-394h310l-23-125H455l-24-137h302z"/><glyph unicode="™" horiz-adv-x="1097" d="M942 1297L771 919h-44l-44 400-71-400h-79l93 537h96l43-397 181 397h103l-94-537h-80zm-392 78H434l-80-456h-80l79 456H236l14 81h315z"/><glyph unicode="−" horiz-adv-x="1002" d="M847 651H165l27 151h681z"/><glyph unicode="◼" horiz-adv-x="1080" d="M0 1080h1080V0H0v1080z"/><glyph horiz-adv-x="1096" d="M99 0l163 939H125l25 143h137l14 107q24 180 117.5 276t238.5 94q52-2 112-19l-25-149q-40 10-80 12-154 0-189-219l-16-102h180l-25-143H435L272 0H99zm458 0l163 939H583l25 143h137l14 107q24 180 117.5 276t238.5 94q52-2 112-19l-25-149q-40 10-80 12-154 0-189-219l-16-102h180l-25-143H893L730 0H557z"/><glyph horiz-adv-x="1421" d="M1102 1168l4 75q-4 152-121 155-85 2-135-68.5T810 1124l28-258-1-77-1-15-175-1q2 81-36 127.5T519 949q-77 0-127-43.5T332 793q-12-81 80-134l170-87q183-101 173-274-9-145-115.5-233.5T376-20q-149 2-241.5 97T48 324l172-1q-2-91 41-141t123-50q84 0 138.5 42T586 285q13 93-104 157l-152 80Q153 622 163 787q7 135 113.5 227t256.5 90q62 0 135-22l-11 88q-12 106 29.5 195.5t125 139T996 1553h1q151-4 226.5-108t54.5-278l-13-85h158l-25-143h-158l-113-673-3-41q-4-84 62-84 22-1 70 10L1243 0q-56-20-116-18-91 2-136.5 76.5T957 269l110 670H907l25 143h159z"/><glyph d="M478 0H-20L0 117l271 264 38 40q77 81 87 150l1 37q-7 67-66 67-97 0-125-135l-146-1q13 118 87 191.5T330 802q100 0 161-62.5T546 572q-4-64-38.5-124T392 310L195 128h306z"/><glyph d="M329 0H183l104 597-181-56 24 135 310 113h21z"/><glyph d="M255-12Q143-9 88.5 82.5T47 325l14 129q19 172 92.5 261T344 801q109-3 163.5-90.5T551 463l-14-131q-18-169-91-258T255-12zm155 547q4 136-75 138-103 3-126-192l-18-171-3-55q-4-63 15.5-101.5T264 114q104-3 125 196l18 180z"/><glyph horiz-adv-x="899" d="M178 145q157-4 261 78t163 260q-98-103-217-101-133 2-202.5 108.5T128 765q16 184 126 302.5T520 1182q137-4 211.5-101T809 815q2-85-20-216-48-293-203-447T188-7h-37l17 152h10zm251 382q117-3 204 143 9 105 8 154-4 94-38 148.5t-95 56.5q-97 2-157.5-98.5T299 692q3-71 38-117.5t92-47.5z"/><glyph horiz-adv-x="899" d="M815 867q-13-174-195-273 69-45 99.5-117T745 325Q735 170 626 74.5T362-17q-144 4-230 93.5T56 307q15 199 220 298-58 44-83.5 108T172 849q8 148 107.5 241.5T528 1182q138-4 217.5-91.5T815 867zM575 334q7 83-33 136t-111 53q-81 2-136.5-56.5T230 318q-9-83 30-133.5T372 134q83-2 139 55.5T575 334zm67 525q7 73-27.5 122t-96.5 49q-68 2-117-51.5T345 843q-7-76 26-123.5t95-47.5q71 0 120 53.5T642 859z"/><glyph horiz-adv-x="899" d="M889 1049L280 0H90l605 1012H143l28 153h738z"/><glyph horiz-adv-x="899" d="M743 1172l-17-156h-9q-163 4-270-85.5T283 656q106 115 229 115 130-2 199.5-107T768 390Q752 210 643.5 94.5T375-17q-131 2-209.5 96.5T81 333q-3 89 23 238 52 294 204.5 444.5T700 1172h43zM464 621q-60 2-113.5-34.5T258 482l-5-46-2-55 1-50q13-191 133-195 99-4 160.5 92.5T597 462q-5 70-39 113t-94 46z"/><glyph horiz-adv-x="899" d="M145 582l156 583h562l-29-162H422l-86-290q81 47 164 47 137 0 211-105t62-275Q760 204 651 91T378-18q-136 4-221 94T68 313h164q2-81 41.5-128.5T388 135q84-2 142 65t71 186q10 98-30 160t-119 64q-82 2-165-66z"/><glyph horiz-adv-x="899" d="M666 413h135l-26-151H640L594 0H421l46 262H-2l19 125 594 778h186zm-457 0h284l91 491-19-30z"/><glyph horiz-adv-x="899" d="M317 667l96-2q94 2 152.5 54.5T634 858q9 79-26 125.5T502 1032q-75 0-125-46.5T312 862l-171-1q14 143 117 233t253 88q144-2 225.5-91.5T808 859q-14-170-197-266 137-63 122-261-12-160-123.5-256T341-16q-144 2-229 92T33 314l172-1q-4-82 34.5-129T352 135q82-2 141 52.5T563 332q10 87-30.5 135T406 518l-115 1z"/><glyph horiz-adv-x="899" d="M713 0H-5l25 140 474 469q127 129 142 243 10 76-23 127t-98 53q-91 3-149.5-55.5T291 811l-171-1q17 170 131.5 273t275.5 99q139-4 219-94.5T814 855q-7-91-66-189.5T549 430L240 151h500z"/><glyph horiz-adv-x="899" d="M473 0H299l163 938-281-98 30 167 431 161h28z"/><glyph horiz-adv-x="899" d="M360-17Q221-13 148 93T78 386l7 111 25 181q36 247 142 378t275 126q140-4 212.5-109T809 782l-4-83-24-187q-35-262-142-398T360-17zm283 847q-5 194-128 200-176 8-226-302l-34-244q-11-82-10-145 0-95 32-149t95-57q176-8 226 307l35 254q10 75 10 136z"/><glyph horiz-adv-x="913" d="M205 151h549L727 0H-29l23 134 682 878H150l27 153h734l-23-131z"/><glyph horiz-adv-x="921" d="M452 618l331 547h203L503 399 434 0H261l76 433-207 732h183z"/><glyph horiz-adv-x="960" d="M491 731l291 434h215L573 577 795 0H602L454 441 154 0H-61l434 597-215 568h193z"/><glyph horiz-adv-x="1312" d="M324 294l-5-44 360 915h153l35-890-1-19 11 40 305 869h176L918 0H756l-43 890L353 0H193l-33 1165 158 1z"/><glyph horiz-adv-x="978" d="M408 292l5-82 37 86 395 869h192L464 0H304L136 1165l174 1z"/><glyph horiz-adv-x="981" d="M974 1165L843 387Q818 203 699.5 91T408-17q-165 6-254 117T84 385l131 780h171L254 384q-5-47 0-91 7-74 49-115t115-44q100-4 165.5 61T669 378l132 787h173z"/><glyph horiz-adv-x="916" d="M926 1012H610L434 0H261l176 1012H122l27 153h804z"/><glyph horiz-adv-x="911" d="M610 306q9 68-25 114.5t-140 85T275 593t-96 113-26 146q10 149 123 241t271 88q151-4 241.5-101T873 824l-172 1q7 96-36 150t-128 54q-83 2-143-46t-70-130q-13-106 125-166l58-23 80-36q209-109 194-320-9-148-121-238T381-16Q218-12 121 90T32 350l172-1q-7-97 38-155.5T389 133q93 0 151.5 47T610 306z"/><glyph horiz-adv-x="935" d="M477 449H274L195 0H22l203 1165 339-1q159-4 243.5-96.5T880 817q-17-227-239-327L790 11V0H605zM300 600l170-2q98 2 162.5 59.5T709 810q15 128-62 177-34 22-86 24l-190 1z"/><glyph horiz-adv-x="1041" d="M664 65L819-99 694-202 511-6q-52-9-92-9-157 2-247 120.5T78 424q-4 135 30 282.5T214 965t168.5 165.5T594 1182q157-4 248-117.5T939 748q3-89-16-216-47-317-259-467zm106 634q7 157-40 240t-146 87q-150 6-236.5-144.5T249 468q-7-157 40-242t144-89q126-7 210 101t112 310z"/><glyph horiz-adv-x="966" d="M271 438L194 0H22l203 1165 379-1q155-6 241.5-103T922 806q-11-168-124.5-268.5T502 437zm26 152l210-2q101 2 165.5 58.5T750 804q11 93-29 148t-120 59l-231 1z"/><glyph horiz-adv-x="1041" d="M429-16q-157 4-247.5 119.5T85 422q-4 137 30 284.5T221 965t168 165.5 211 51.5q158-4 248-119.5T943 748q3-219-62-399.5T699.5 74 429-16zm345 720q7 159-40.5 238.5T589 1026q-127 5-210.5-104.5T267 614l-13-147q-7-159 41-242.5T439 137q127-5 209.5 101.5T760 554q12 104 14 150z"/><glyph horiz-adv-x="1069" d="M828 0H662L348 884 195 0H22l203 1165h166l313-885 154 885h172z"/><glyph horiz-adv-x="1306" d="M442 1165l143-908 456 908h226L1065 0H894l71 411 98 469L611 0H485L333 901l-71-510L194 0H22l203 1165h217z"/><glyph horiz-adv-x="827" d="M221 151h468L662 0H23l202 1165h172z"/><glyph horiz-adv-x="950" d="M403 509L259 371 195 0H22l203 1165h172l-93-529 486 529h223L532 638 823 0H628z"/><glyph horiz-adv-x="844" d="M643 1165h175L679 338Q657 176 556 77.5T309-17Q159-13 78.5 81T6 332l173-1q-7-91 28.5-143.5T320 133q70-2 120 53t63 151z"/><glyph horiz-adv-x="450" d="M203 0H30l203 1165h173z"/><glyph horiz-adv-x="1070" d="M829 0H657l87 498H281L194 0H22l203 1165h172l-90-515h463l89 515h172z"/><glyph horiz-adv-x="1022" d="M832 150Q776 70 675.5 26T442-16q-106 1-186.5 54T131 190.5 83 412q-5 119 23.5 270T200 945q140 242 399 236 153-4 242.5-101T942 811H772q-14 211-180 218-156 6-240-142t-97-429q-7-148 43.5-234T451 136q127-4 211 72l44 239H491l25 144h385z"/><glyph horiz-adv-x="835" d="M687 499H281L194 0H22l203 1165h642l-27-153H370l-62-360h406z"/><glyph horiz-adv-x="911" d="M609 306q9 68-25 114.5T445 505t-170 87-96.5 113T153 851q7 130 100.5 218T499 1177l43 218h137l-44-223q116-28 180-120.5T872 824l-172 1q7 95-35 149t-129 56q-88 0-145-48t-67-128q-13-107 124-167l58-23 80-36q209-109 194-320-9-131-99.5-215T440-11l-44-226H259l45 227Q171 15 98 112T31 350l172-1q-7-97 38.5-155.5T389 134q89-2 149 45t71 127z"/><glyph horiz-adv-x="938" d="M663 500l-318 1q-34-206-80-301l-27-50 537 2L747 0H12l24 150 8-1q85 47 112 239l18 113-132-1 21 121h123l14 116q27 219 125.5 333.5T575 1182q140-3 215.5-107T854 793l-174 1 2 73q-8 155-120 160-148 6-189-268l-16-138h328z"/><glyph horiz-adv-x="805" d="M398 623l281 542h191L521 537h163l-22-121H455l-6-5-19-70h221l-23-120H415L376 0H204l39 221H28l21 120h214l13 75H62l21 121h177l-131 628h177z"/><glyph horiz-adv-x="870" d="M663 406H341q-8-129 34.5-197.5T508 138q59-3 169 26l12-152q-98-28-186-26-166 4-254.5 120.5T171 407l-128-1 22 121h117l19 109H84l20 121h113q56 211 173.5 319.5T679 1183q79-2 198-33l-36-149q-77 30-169 32-99 0-168-64.5T391 757h334l-22-121H375l-19-109h329z"/><glyph d="M206 458h69q53 3 88 33.5t42 84.5q5 41-13 68.5T329 673q-78 0-109-92l-147-1q10 100 80 162t174 60q103-2 166-61t57-158q-7-115-138-184 97-43 92-171-4-107-82-174T228-11Q122-9 62 55.5T4 223h143q-2-103 89-105 52 0 86.5 33t41.5 84q12 103-93 107h-75z"/><glyph d="M453 298l88 1-24-130h-81L406 0H261l30 169H-8L6 281l384 507 148 1zm-295 1h155l55 281-14-20z"/><glyph d="M67 390l111 399h397l-23-132H277l-53-171q48 27 102 28 93 2 145-66.5T518 266q-4-121-79-200.5T251-12Q150-10 87.5 53T23 218l141-1q2-53 23.5-76t64.5-23q62 0 96.5 60.5T376 314q-5 38-27 61.5T291 399q-49 0-101-41z"/><glyph d="M509 800l-14-132-7 1q-113 2-181-57T202 451q70 70 148 72 89 0 137-70.5T530 267q-7-123-82-202T264-12Q152-10 93 77T44 302l3 35q20 219 133.5 340.5T480 800h29zM305 398q-71 2-120-77-6-55-5-87 2-53 23-84.5t60-31.5q48 0 83 44t40 104q5 58-16 95t-65 37z"/><glyph d="M593 688L199 0H36l394 659H75l23 130h512z"/><glyph d="M549 587q-5-116-124-186 88-59 84-177-4-106-77.5-172T247-12Q143-12 81 49.5T25 207q9 127 141 204-75 57-71 160t72 166.5T340 801q96 0 155.5-59T549 587zM364 234q4 45-17.5 74.5T283 338q-50-1-80-35t-36-81q-6-42 14-74t66-32q47 0 79 33.5t38 84.5zm44 341q5 43-13.5 69.5T341 671q-46 0-76-42t-23-99q3-27 20.5-44.5T307 468q40 0 68.5 32t32.5 75z"/><glyph d="M114 118q105-2 168 48.5T380 312q-66-54-129-56-87-2-137.5 67.5T68 511q7 124 80.5 208T332 801q109-2 165.5-88.5T543 481l-4-44q-20-216-131-331T110-9H94l12 128zm178 256q59 0 109 70l6 64 1 49q-2 51-22 81.5T329 669q-55 0-89.5-61T212 467q3-42 24.5-67.5T292 374z"/><glyph horiz-adv-x="862" d="M706 526H286l-65-375h491L685 0H23l202 1165h657l-27-153H370l-58-334h421z"/><glyph horiz-adv-x="932" d="M936 935l-124-1q25-93 15-189l-2-23q-20-159-135-261.5T420 360q-59 2-127 23-54-56-62-112-5-41 17-56.5t58-17.5l125-2q163-2 244-77t72-207q-7-100-73.5-178.5T492.5-393 261-438q-96 0-183.5 34.5t-130.5 95T-91-170Q-80 0 90 106q-32 47-26 110 14 128 139 220-104 104-93 282 15 178 129 283t278 103l33-2 93-19 320-1zM269 44l-69 7Q103-17 89-133q-9-71 42-113t138-42q110-2 201.5 54T576-90q9 65-23 98T441 43zm15 669q-6-78 34.5-138T435 513q80-2 142 60.5T650 723l2 22q7 88-34 145.5T503 950q-83 2-144.5-61.5T286 735z"/><glyph horiz-adv-x="1157" d="M345 628L236 0H56l253 1455 427-1q176-6 267-112t76-293q-22-227-254-341 125-67 129-241 1-50-4-98l-26-181-2-61q2-63 28-102l-2-25-178-1q-28 46-29 117l1 48 30 224 1 65q-3 75-39 122t-100 51zm27 157l232-2q146 1 223 87.5t75 237.5l-2 35q-8 71-51.5 110.5T730 1296l-269 1z"/><glyph horiz-adv-x="1124" d="M488 654H349L235 0H56l253 1456h179L376 814h102l508 642h236L643 742 990 0H784z"/><glyph horiz-adv-x="910" d="M398 501H291L203 0H29l267 1536h174L316 654h96l304 428h214L541 579 776 0H584z"/><glyph horiz-adv-x="1148" d="M355 688L235 0H56l253 1456h179L370 808h6l590 648h236L541 732 967 0H762z"/><glyph horiz-adv-x="913" d="M297 499h-3L203 0H29l271 1560h174L318 667l363 415h237L445 576 752 0H558z"/><glyph horiz-adv-x="988" d="M23 0l202 1165 284-1q131-3 222-75.5t130-198T883 613l-6-47q-33-263-182.5-414T326 0H23zm347 1012L221 151l102-2q178 0 282 136.5T719 703q3 148-51 226t-162 82z"/><glyph horiz-adv-x="985" d="M853 378Q821 191 704 85T415-17q-104 3-179 55.5t-115.5 152T78 408q-2 63 5 123l12 87q37 264 170 416t331 147q156-4 244.5-106.5T934 782H762q-3 132-46 188.5T586 1030q-122 5-204.5-94T270 640q-27-184-21-273 10-226 176-233 97-5 161 51t100 191z"/><glyph horiz-adv-x="955" d="M23 0l202 1165 329-1q155-4 239-85t73-223q-11-166-196-254 67-26 101.5-98T799 341Q787 178 681.5 88.5T406 0H23zm264 530l-66-379 188-1q76 2 129.5 37t76.5 97 15 128q-14 111-127 117zm24 141l181-2q81 3 135.5 49.5T693 846q11 80-26.5 121T551 1011l-181 1z"/><glyph horiz-adv-x="1007" d="M648 279H246L108 0H-74l593 1165h152L854 0H688zM319 430h307l-68 483z"/><glyph d="M370 652q-112 3-166.5 94.5T162 989l14 129q19 172 92.5 261t190.5 86q109-3 163.5-90.5T666 1127l-14-131q-18-169-91-258t-191-86zm155 547q4 136-75 138-103 3-126-192l-18-171-3-55q-4-63 15.5-101.5T379 778q104-3 125 196l18 180z"/><glyph d="M568 962l88 1-24-130h-81l-30-169H376l30 169H107l14 112 384 507 148 1zm-295 1h155l55 281-14-20z"/><glyph d="M182 1054l111 399h397l-23-132H392l-53-171q48 27 102 28 93 2 145-66.5T633 930q-4-121-79-200.5T366 652q-101 2-163.5 65T138 882l141-1q2-53 23.5-76t64.5-23q62 0 96.5 60.5T491 978q-5 38-27 61.5t-58 23.5q-49 0-101-41z"/><glyph d="M624 1464l-14-132-7 1q-113 2-181-57t-105-161q70 70 148 72 89 0 137-70.5T645 931q-7-123-82-202t-184-77q-112 2-171 89t-49 225l3 35q20 219 133.5 340.5T595 1464h29zm-204-402q-71 2-120-77-6-55-5-87 2-53 23-84.5t60-31.5q48 0 83 44t40 104q5 58-16 95t-65 37z"/><glyph d="M708 1352L314 664H151l394 659H190l23 130h512z"/><glyph d="M664 1251q-5-116-124-186 88-59 84-177-4-106-77.5-172T362 652q-104 0-166 61.5T140 871q9 127 141 204-75 57-71 160t72 166.5 173 63.5q96 0 155.5-59t53.5-155zM479 898q4 45-17.5 74.5T398 1002q-50-1-80-35t-36-81q-6-42 14-74t66-32q47 0 79 33.5t38 84.5zm44 341q5 43-13.5 69.5T456 1335q-46 0-76-42t-23-99q3-27 20.5-44.5T422 1132q40 0 68.5 32t32.5 75z"/><glyph d="M229 782q105-2 168 48.5T495 976q-66-54-129-56-87-2-137.5 67.5T183 1175q7 124 80.5 208t183.5 82q109-2 165.5-88.5T658 1145l-4-44q-20-216-131-331T225 655h-16l12 128zm178 256q59 0 109 70l6 64 1 49q-2 51-22 81.5t-57 30.5q-55 0-89.5-61T327 1131q3-42 24.5-67.5T407 1038z"/><glyph horiz-adv-x="1208" d="M1062 464q-38-223-176.5-357T547-21q-126 3-219.5 72.5T184 251t-52 290q-2 80 7 153l6 43q49 338 215.5 541.5T766 1477q186-5 293.5-137.5T1167 987H988q-5 322-231 332-117 5-212.5-76.5T385 986.5 310 592q-6-125 18-230.5T410.5 197 556 135q124-5 207 74.5T891 461z"/><glyph horiz-adv-x="1238" d="M1035 191Q968 88 842 32.5T566-21q-134 3-230 73T188 255.5 134 552q-2 83 7 159l2 15q49 344 217 549.5T769 1476q174-3 279-111.5t124-312.5l2-24H996q-15 283-236 290-122 5-218-83T384.5 977.5 313 604q-6-125 19-235t86-169.5T572 137q177-4 283 105l59 326H656l28 155h433z"/><glyph horiz-adv-x="1220" d="M57 0l252 1456 350-1q135-4 235.5-71t156.5-192 63-279q9-249-80-463.5t-251.5-332T420 0H57zm404 1298L263 157l154-1q218 0 358 179t160 481l3 51q3 206-69.5 315T653 1297z"/><glyph horiz-adv-x="1287" d="M1177 712q-29-210-123-386.5t-224.5-264T550-21q-127 4-218.5 75.5T190.5 259 139 551q-6 243 84 466.5T457.5 1361 778 1477q126-3 218-72.5t141.5-201.5 51.5-295q1-84-12-196zm-172 46l8 104q6 116-18 224.5T913 1252t-145 61q-110 5-205.5-73t-163-236T318 663l-3-61q-6-119 18.5-229T416 204t144-63q167-7 286.5 157.5T1005 758z"/><glyph horiz-adv-x="1290" d="M797 57l171-197-133-112L627-14l-80-6q-175 2-282 140T141 501l-2 52q-6 237 81.5 459T453 1357.5 778 1477q127-3 219.5-73.5t142-205T1191 906q2-177-44-348t-136-298.5T797 57zm207 699l8 104q6 121-17.5 227.5t-81.5 164-145 61.5q-103 4-193-63t-157-205-91-298q-10-85-12-145-6-119 18.5-229T416 204t144-63q166-7 284 152.5T1001 734z"/><glyph horiz-adv-x="1430" d="M1256 0H726L491-14h-67q-157 4-246.5 120.5T84 423q-3 90 16 212t63 224q70 161 183 243.5t255 80.5q78-1 164-9.5t168-8.5h519l-27-153H941l-59-334h420l-27-152H857l-66-375h491zM523 141l90 3 161 873-179 12q-95 2-168.5-59t-119-186.5T253 468q-7-158 39-240.5T429 141h94z"/><glyph horiz-adv-x="992" d="M702 1012H198l27 153h725l-22-127-373-399q121-30 185.5-152T790 203q-16-172-99-307T471-305q-97-47-217-45-154 3-328 103l60 140q118-87 259-91 113-1 203.5 66.5T584 56t33 250q-20 193-226 201l-51 1 15 112z"/><glyph horiz-adv-x="992" d="M97 374l224 790h650l-30-171H430L311 596q87 66 196 66 134 0 212-101t84-273-59-325.5T560-274t-269-80q-167 4-314 113L40-98q95-103 257-105 100-1 178.5 64.5T594.5 45 628 281q-7 96-52.5 154.5T453 497q-151 4-207-141z"/><glyph horiz-adv-x="992" d="M727 150h162L862-1H701l-57-329H471L529-1H-54l21 119 748 1047h189zm-550 0h377l137 751-25-40z"/><glyph horiz-adv-x="992" d="M767 0H41l24 140 452 432 57 58q105 110 117 219 9 77-25.5 129.5T560 1035q-92 3-156.5-68.5T321 774l-169-1q20 180 138.5 298T571 1185q143-4 226-96.5T868 856q-8-89-56.5-174.5T649 485L309 151h485z"/><glyph horiz-adv-x="992" d="M960 1048L232-330H52l717 1343H189l27 152h764z"/><glyph horiz-adv-x="992" d="M914 579q-36-280-171.5-443.5T403-21q-163 4-254.5 123.5T54 438q-1 59 8 152 35 271 170.5 435.5T576 1185q152-4 240.5-107.5T920 782l3-53q0-64-9-150zm-169 33q11 96 7 172-16 243-185 250-179 6-272-206-59-133-70-351-10-160 37.5-252T412 129q132-7 218 112.5T739 567z"/><glyph horiz-adv-x="992" d="M836 1458l-15-157h-33q-161-4-273.5-111T326 833q112 126 252 122 129-4 203-101.5T861 585q6-158-48.5-303.5T658.5 56 425-20q-174 5-256 167-57 114-60 273-1 63 17 205 62 425 230 625.5T797 1458h39zM537 802q-73 2-138-50.5T291 603l-7-72-3-66q-7-144 32.5-236.5T435 132q118-5 188.5 119.5T690 571q-2 100-41.5 164.5T537 802z"/><glyph horiz-adv-x="992" d="M233-193q139-4 243.5 102T657 254q-111-92-236-88-141 2-223.5 103T106 547q-8 159 49.5 315T317 1104t240 82q160-4 247.5-118.5T894 748q0-66-8-128l-37-243Q811 144 723-22.5T514-268t-268-76q-123 3-228 63l49 140q82-48 166-52zm208 509q75-3 140.5 39.5T694 483l23 157q11 94 8 162-10 225-173 232-128 5-200-131t-74-309q-3-121 39-197.5T441 316z"/><glyph horiz-adv-x="992" d="M932 1085q-21-221-231-341 74-54 111-144.5T840 402Q825 217 706.5 96T410-21Q250-17 160.5 98T86 385q22 249 259 370-64 54-92.5 136.5T232 1067q13 181 123.5 297.5T632 1477q148-4 231-113t69-279zM668 405q11 122-33 194.5T508 674h-2q-79 1-139.5-50.5t-89-144T259 299q9-79 51-123.5T421 130q99-3 166.5 71.5T668 405zm91 756q-7 74-44 118.5t-95 45.5q-89 2-148-73t-69-187q-9-111 29-175t111-66q103-4 166 99t50 238z"/><glyph horiz-adv-x="992" d="M578 0H405l162 928-326-138 32 178 472 197h29z"/><glyph horiz-adv-x="482" d="M414 1082L215-88q-23-170-105-262t-215-90q-44 2-98 21l27 146q50-18 82-16Q12-289 41-89l200 1171h173z"/><glyph horiz-adv-x="478" d="M210 0H37l188 1082h173z"/><glyph horiz-adv-x="955" d="M318 181q65-53 128-53 75 0 127 64.5T636 361q19 167-161 173l-77 1 20 145 228 291q-44 58-114 61-173 6-211-279L194 0H22l128 753q28 213 129.5 323.5T541 1182q86-3 161.5-45.5T862 995L581 664q114-19 174.5-99.5T808 364Q797 194 693.5 84T438-22q-86 2-184 53z"/><glyph horiz-adv-x="921" d="M954 1341L261 0H81l689 1304H189l27 152h758z"/><glyph horiz-adv-x="990" d="M894 537q-20-164-84-298T655 40.5 454-21q-162 4-241 135L176 0H25l266 1536h172L358 982q111 124 254 120 141-4 215.5-118.5T902 670q0-49-8-133zm-170 21l6 74q7 150-38 231t-135 83q-130 3-225-161l-83-491q21-75 65.5-116T420 135q163-6 249 199 39 94 53 203z"/><glyph horiz-adv-x="926" d="M414 129q81-2 141 57t84 154l162 1Q778 188 664 81.5T404-21q-100 1-174 53T118.5 181 79 396q-3 183 53.5 352.5t169 263.5 259.5 90q146-4 230-113.5T870 709H707q3 110-39 174.5T551 951q-116 5-190.5-96.5T261 566l-7-48q-10-84-7-158 3-112 46-170.5T414 129z"/><glyph horiz-adv-x="1011" d="M83 543q23 170 89 303t157.5 196.5T531 1103q141-4 224-113l102 546h172L762 0H614l14 104Q519-25 368-21q-91 3-157 58t-99.5 157T76 413q-1 59 5 109zm171-21l-5-73q-7-147 38-230t135-85q123-3 218 146l88 525q-54 137-164 140-122 5-203-106T257 543z"/><glyph horiz-adv-x="1003" d="M84 543q19 160 83 295.5T323.5 1040t205.5 63q157-4 236-133l37 112h148L778 78q-36-249-158-380T313-428q-159 4-293 106l63 140q99-91 233-95 195-5 268 237l27 106 6 25Q504-24 367-20 232-18 155 99T77 413q-1 59 4 109zm164-94q-7-143 38-228t136-87q122-3 218 148l88 518q-47 141-165 145-123 5-204-107.5T256 543q-7-48-8-94z"/><glyph horiz-adv-x="1021" d="M573 1102q102-3 177-55.5T866.5 894 913 676q2-56-6-145-20-156-90.5-289T643 42.5 416-21q-101 3-175.5 55t-116 150T79 401q-3 62 3 121 37 274 168.5 429.5T573 1102zM249 447q-7-145 39-229t139-88q66-3 124 33.5T650 271q85 146 93 358v37q-8 278-181 285-87 3-155.5-58.5T296 711t-47-264z"/><glyph horiz-adv-x="1005" d="M892 536q-23-171-85.5-301t-153-194.5T453-21Q304-17 219 89l-95-505H-48l260 1498 147 1-14-109q116 132 265 128 140-4 215-117t75-316q0-49-8-133zm-164 97l-1 56q-14 253-180 257-115 3-211-138l-92-545q45-129 164-133 86-3 156 56.5t114 180T728 633z"/><glyph horiz-adv-x="1020" d="M83 542q23 172 87.5 304T328 1042t207 61q147-4 230-119l33 98h151L689-416H517l95 498Q502-24 371-20 233-18 155 99.5T76 410q-1 50 7 132zm171-21l-5-74q-7-147 39.5-231T425 130q111-3 210 131l96 559q-54 126-162 131-160 6-251-189-46-100-61-220z"/><glyph horiz-adv-x="941" d="M451-20Q288-18 193.5 92.5T87 390q-8 127 22.5 261.5t98 241T364 1052t192 50q134-4 213-89t91-231q7-89-4-171l-18-123H257q-6-56-1-118 9-106 64-171.5T465 132q121-2 236 88l39-128Q633-22 451-20zm94 971q-184 9-271-311l412-1 5 27q7 45 6 94-2 86-40.5 137T545 951z"/><glyph horiz-adv-x="989" d="M514 1103q159-4 236-132l38 111h148L762 60q-34-234-154.5-362.5T298-428q-142 4-260 87l63 139q86-72 202-76 199-6 272 250l27 117Q489-24 353-20 220-18 147.5 98T77 414q0 112 29.5 246T193 896.5t139.5 156T514 1103zM256 522q-10-79-7-154l4-51q24-180 155-183 62-2 114 32.5T625 281l89 521q-53 140-165 143-114 4-190-100T258 543z"/><glyph horiz-adv-x="770" d="M448 0H274l214 1227-322-136 32 178 468 194h31z"/><glyph horiz-adv-x="1056" d="M328-15q-127 2-206.5 82T50 269q11 176 192 307l69 50-39 75q-57 116-50 209 8 117 91 195.5t205 76.5q105-2 172-75.5T751 928q-10-152-148-258l-88-67 152-262q70 112 93 259h153q-27-226-164-390L869 0H690l-51 87Q493-19 328-15zm25 152q97-3 206 71L386 509l-70-53q-78-71-89-162-9-69 22.5-112T353 137zm28 761q-7-55 33-128l23-41 53 40q77 61 86 144 5 53-17 83.5t-63 30.5q-42 0-75-37.5T381 898z"/><glyph horiz-adv-x="1353" d="M1165 533H812l-54-384h429L1161 0H566l42 301H289L108 0H-84l734 1165h673l-26-150H879l-47-332h359zm-787-81h251l78 547z"/><glyph horiz-adv-x="885" d="M225 1165h172l-36-203 126-1q158-6 244-105.5T805 603q-11-169-126-268.5T386 235l-150 1L194 0H22zm110-355l-73-422 128-1q101 2 166 58t77 157q11 92-29 147.5T484 809z"/><glyph horiz-adv-x="1041" d="M897 1018q40-96 46-197 7-137-21-305T822 224 648.5 40 424-17q-118 2-209 68L134-57l-149 1 149 195q-44 97-52 201-10 124 16.5 293.5t99 297 176.5 191 226 60.5q125-2 218-74l74 98 148-1zM255 548l-12-122q-4-61 3-122l479 667q-51 53-133 57-123 5-208.5-101T265 612zm527 301L307 187q49-49 126-51 126-5 209.5 99.5T759 553l12 90q17 127 11 206z"/><glyph horiz-adv-x="988" d="M471 515H-56l27 151h527zM23 0l202 1165 284-1q131-3 222-75.5t130-198T883 613l-6-47q-33-263-182.5-414T326 0H23zm347 1012L221 151l102-2q178 0 282 136.5T719 703q3 148-51 226t-162 82z"/><glyph horiz-adv-x="1007" d="M648 279H246L108 0H-74l593 1165h152L854 0H688zM319 430h307l-68 483zm397 842H574l-205 294h205z"/><glyph horiz-adv-x="1007" d="M648 279H246L108 0H-74l593 1165h152L854 0H688zM319 430h307l-68 483zm427 1136h231l-306-294H512z"/><glyph horiz-adv-x="1007" d="M648 279H246L108 0H-74l593 1165h152L854 0H688zM319 430h307l-68 483zm559 864v-14l-138 2-84 169-148-168-140-2v14l242 271h99z"/><glyph horiz-adv-x="1007" d="M648 279H246L108 0H-74l593 1165h152L854 0H688zM319 430h307l-68 483zm628 1105q-11-111-63.5-179T749 1290q-33 0-58.5 16t-49.5 35-49 33.5-56 13.5q-67-3-97-112l-112 7q11 110 65 180t136 68q46-2 107-51.5t107-47.5q67 3 98 113z"/><glyph horiz-adv-x="1007" d="M648 279H246L108 0H-74l593 1165h152L854 0H688zM319 430h307l-68 483zm6 969q1 46 30 76.5t77 32.5q46 1 76.5-28.5T538 1403q0-46-30-76t-77-32q-47-1-76.5 28t-29.5 76zm417-2q1 46 30 77t76 33q48 1 78-28.5t29-77.5q0-47-30-76.5t-77-31.5q-46-1-76.5 28t-29.5 76z"/><glyph horiz-adv-x="1007" d="M648 279H246L108 0H-74l593 1165h152L854 0H688zM319 430h307l-68 483zm122 1011q2 91 66.5 154t153.5 63q82 0 139.5-58t57.5-143q-2-89-66.5-151T638 1244q-84 0-141.5 57T441 1441zm96 2q-4-46 23-77.5t70-31.5q46 0 85.5 35.5T761 1455q6 46-22 79t-70 33q-46 0-86-36.5t-46-87.5z"/><glyph horiz-adv-x="985" d="M853 378Q821 191 704 85T415-17q-104 3-179 55.5t-115.5 152T78 408q-2 63 5 123l12 87q37 264 170 416t331 147q156-4 244.5-106.5T934 782H762q-3 132-46 188.5T586 1030q-122 5-204.5-94T270 640q-27-184-21-273 10-226 176-233 97-5 161 51t100 191zM454-3l-19-55q47-13 72.5-55.5T531-221q-3-99-76.5-156.5T248-440l5 108q132 11 145 107 10 67-67 81l-42 7L331-3h123z"/><glyph horiz-adv-x="862" d="M706 526H286l-65-375h491L685 0H23l202 1165h657l-27-153H370l-58-334h421zm-34 746H530l-205 294h205z"/><glyph horiz-adv-x="862" d="M706 526H286l-65-375h491L685 0H23l202 1165h657l-27-153H370l-58-334h421zm-4 1040h231l-306-294H468z"/><glyph horiz-adv-x="862" d="M706 526H286l-65-375h491L685 0H23l202 1165h657l-27-153H370l-58-334h421zm128 768v-14l-138 2-84 169-148-168-140-2v14l242 271h99z"/><glyph horiz-adv-x="862" d="M706 526H286l-65-375h491L685 0H23l202 1165h657l-27-153H370l-58-334h421zm-425 873q1 46 30 76.5t77 32.5q46 1 76.5-28.5T494 1403q0-46-30-76t-77-32q-47-1-76.5 28t-29.5 76zm417-2q1 46 30 77t76 33q48 1 78-28.5t29-77.5q0-47-30-76.5t-77-31.5q-46-1-76.5 28t-29.5 76z"/><glyph horiz-adv-x="450" d="M203 0H30l203 1165h173zm234 1272H295L90 1566h205z"/><glyph horiz-adv-x="450" d="M203 0H30l203 1165h173zm263 1566h231l-306-294H232z"/><glyph horiz-adv-x="450" d="M203 0H30l203 1165h173zm396 1294v-14l-138 2-84 169-148-168-140-2v14l242 271h99z"/><glyph horiz-adv-x="450" d="M203 0H30l203 1165h173zM46 1399q1 46 30 76.5t77 32.5q46 1 76.5-28.5T259 1403q0-46-30-76t-77-32q-47-1-76.5 28T46 1399zm417-2q1 46 30 77t76 33q48 1 78-28.5t29-77.5q0-47-30-76.5t-77-31.5q-46-1-76.5 28t-29.5 76z"/><glyph horiz-adv-x="1069" d="M828 0H662L348 884 195 0H22l203 1165h166l313-885 154 885h172zm146 1535q-11-111-63.5-179T776 1290q-33 0-58.5 16t-49.5 35-49 33.5-56 13.5q-67-3-97-112l-112 7q11 110 65 180t136 68q46-2 107-51.5t107-47.5q67 3 98 113z"/><glyph horiz-adv-x="1041" d="M429-16q-157 4-247.5 119.5T85 422q-4 137 30 284.5T221 965t168 165.5 211 51.5q158-4 248-119.5T943 748q3-219-62-399.5T699.5 74 429-16zm345 720q7 159-40.5 238.5T589 1026q-127 5-210.5-104.5T267 614l-13-147q-7-159 41-242.5T439 137q127-5 209.5 101.5T760 554q12 104 14 150zm-42 568H590l-205 294h205z"/><glyph horiz-adv-x="1041" d="M429-16q-157 4-247.5 119.5T85 422q-4 137 30 284.5T221 965t168 165.5 211 51.5q158-4 248-119.5T943 748q3-219-62-399.5T699.5 74 429-16zm345 720q7 159-40.5 238.5T589 1026q-127 5-210.5-104.5T267 614l-13-147q-7-159 41-242.5T439 137q127-5 209.5 101.5T760 554q12 104 14 150zm-12 862h231l-306-294H528z"/><glyph horiz-adv-x="1041" d="M429-16q-157 4-247.5 119.5T85 422q-4 137 30 284.5T221 965t168 165.5 211 51.5q158-4 248-119.5T943 748q3-219-62-399.5T699.5 74 429-16zm345 720q7 159-40.5 238.5T589 1026q-127 5-210.5-104.5T267 614l-13-147q-7-159 41-242.5T439 137q127-5 209.5 101.5T760 554q12 104 14 150zm120 590v-14l-138 2-84 169-148-168-140-2v14l242 271h99z"/><glyph horiz-adv-x="1041" d="M429-16q-157 4-247.5 119.5T85 422q-4 137 30 284.5T221 965t168 165.5 211 51.5q158-4 248-119.5T943 748q3-219-62-399.5T699.5 74 429-16zm345 720q7 159-40.5 238.5T589 1026q-127 5-210.5-104.5T267 614l-13-147q-7-159 41-242.5T439 137q127-5 209.5 101.5T760 554q12 104 14 150zm189 831q-11-111-63.5-179T765 1290q-33 0-58.5 16t-49.5 35-49 33.5-56 13.5q-67-3-97-112l-112 7q11 110 65 180t136 68q46-2 107-51.5t107-47.5q67 3 98 113z"/><glyph horiz-adv-x="1041" d="M429-16q-157 4-247.5 119.5T85 422q-4 137 30 284.5T221 965t168 165.5 211 51.5q158-4 248-119.5T943 748q3-219-62-399.5T699.5 74 429-16zm345 720q7 159-40.5 238.5T589 1026q-127 5-210.5-104.5T267 614l-13-147q-7-159 41-242.5T439 137q127-5 209.5 101.5T760 554q12 104 14 150zm-433 695q1 46 30 76.5t77 32.5q46 1 76.5-28.5T554 1403q0-46-30-76t-77-32q-47-1-76.5 28t-29.5 76zm417-2q1 46 30 77t76 33q48 1 78-28.5t29-77.5q0-47-30-76.5t-77-31.5q-46-1-76.5 28t-29.5 76z"/><glyph horiz-adv-x="981" d="M974 1165L843 387Q818 203 699.5 91T408-17q-165 6-254 117T84 385l131 780h171L254 384q-5-47 0-91 7-74 49-115t115-44q100-4 165.5 61T669 378l132 787h173zm-275 107H557l-205 294h205z"/><glyph horiz-adv-x="981" d="M974 1165L843 387Q818 203 699.5 91T408-17q-165 6-254 117T84 385l131 780h171L254 384q-5-47 0-91 7-74 49-115t115-44q100-4 165.5 61T669 378l132 787h173zm-245 401h231l-306-294H495z"/><glyph horiz-adv-x="981" d="M974 1165L843 387Q818 203 699.5 91T408-17q-165 6-254 117T84 385l131 780h171L254 384q-5-47 0-91 7-74 49-115t115-44q100-4 165.5 61T669 378l132 787h173zm-113 129v-14l-138 2-84 169-148-168-140-2v14l242 271h99z"/><glyph horiz-adv-x="981" d="M974 1165L843 387Q818 203 699.5 91T408-17q-165 6-254 117T84 385l131 780h171L254 384q-5-47 0-91 7-74 49-115t115-44q100-4 165.5 61T669 378l132 787h173zm-666 234q1 46 30 76.5t77 32.5q46 1 76.5-28.5T521 1403q0-46-30-76t-77-32q-47-1-76.5 28t-29.5 76zm417-2q1 46 30 77t76 33q48 1 78-28.5t29-77.5q0-47-30-76.5t-77-31.5q-46-1-76.5 28t-29.5 76z"/><glyph horiz-adv-x="921" d="M452 618l331 547h203L503 399 434 0H261l76 433-207 732h183zm247 948h231l-306-294H465z"/><glyph horiz-adv-x="921" d="M452 618l331 547h203L503 399 434 0H261l76 433-207 732h183zm-174 781q1 46 30 76.5t77 32.5q46 1 76.5-28.5T491 1403q0-46-30-76t-77-32q-47-1-76.5 28t-29.5 76zm417-2q1 46 30 77t76 33q48 1 78-28.5t29-77.5q0-47-30-76.5t-77-31.5q-46-1-76.5 28t-29.5 76z"/><glyph horiz-adv-x="991" d="M810 0H19l22 141 522 590q101 116 147 215t38 209q-7 77-46 122.5T599 1326q-109 3-178.5-77T333 1028l-170-1q20 202 141.5 327.5T608 1476q157-4 244.5-111t72.5-272q-18-192-200-414l-71-84-399-444h579z"/><glyph horiz-adv-x="991" d="M372 818l105-2q129 2 202.5 97.5T739 1163q-7 77-47 119.5T585 1326q-88 2-149-62.5T356 1075l-170-1q17 177 130.5 291T596 1477q106-2 181-54.5T887 1278t25-206q-10-108-72.5-193.5T678 742q82-42 119-127.5T824 413Q806 218 687.5 97T394-20Q235-16 145.5 96T65 384h173q-8-119 36.5-185T404 131q103-3 170 73t79 206q12 118-36.5 185T470 666l-123 1z"/><glyph horiz-adv-x="991" d="M745 489h157l-26-151H719L660 0H487l59 338H12l21 119 693 999h187zm-510 0h337l126 694z"/><glyph horiz-adv-x="991" d="M202 733l175 723h616l-27-171H498L395 887q96 65 190 63 136-2 212-103.5T879 577q6-170-50-311T670 49.5 434-22Q286-19 197 90.5T106 384h161q11-250 177-253 129-3 200.5 129T705 571q-7 96-51 153t-120 60q-48 2-90.5-17T344 694z"/><glyph horiz-adv-x="1011" d="M861 1458l-15-157h-33q-161-4-273.5-111T351 833q112 126 252 122 129-4 203-101.5T886 585q6-158-48.5-303.5T683.5 56 450-20q-174 5-256 167-57 114-60 273-1 63 17 205 62 425 230 625.5T822 1458h39zM562 802q-73 2-138-50.5T316 603l-7-72-3-66q-7-144 32.5-236.5T460 132q118-5 188.5 119.5T715 571q-2 100-41.5 164.5T562 802z"/><glyph horiz-adv-x="1031" d="M951 1085q-21-221-231-341 74-54 111-144.5T859 402Q844 217 725.5 96T429-21Q269-17 179.5 98T105 385q22 249 259 370-64 54-92.5 136.5T251 1067q13 181 123.5 297.5T651 1477q148-4 231-113t69-279zM687 405q11 122-33 194.5T527 674h-2q-79 1-139.5-50.5t-89-144T278 299q9-79 51-123.5T440 130q99-3 166.5 71.5T687 405zm91 756q-7 74-44 118.5t-95 45.5q-89 2-148-73t-69-187q-9-111 29-175t111-66q103-4 166 99t50 238z"/><glyph horiz-adv-x="1011" d="M694 622Q570 484 441 487q-86 1-149 48t-96.5 136T160 862q-6 158 50 309t156 230 229 75q153-4 234-127.5t78-338.5q-2-131-38-318-66-344-222.5-512T245-1l-62-1 15 156h43q167 5 277 112.5T694 622zm-214 17q131-6 240 194 19 148 15 232-6 124-44 189.5T585 1323q-127 6-199-148-42-91-52-200l-4-62q-3-126 35.5-199T480 639z"/><glyph horiz-adv-x="1031" d="M424-21q-276 7-297 372-7 128 18 298l38 252q53 310 168 444.5T647 1476q276-7 297-363 6-106-13-270l-46-302q-53-299-169-433.5T424-21zm356 1065q6 144-31 210t-114 71q-213 12-274-376l-55-372q-13-95-15-155-11-286 144-292 210-11 272 372l51 338q19 128 22 204z"/></font>
</defs>
</svg>
