<svg version="1.0" xmlns="http://www.w3.org/2000/svg" width="693.333" height="693.333" viewBox="0 0 520 520"><path d="M295.5 40c27 53.9 42.9 104 47.5 149.3 1.8 17.1.8 48.7-1.8 59.8-6 25.4-19 51.7-44.5 89.9-24.5 36.7-41.4 55.1-50.6 55.2-12.1.1-29.8-21.1-45.7-54.7-17.4-36.9-21.9-75.4-10.9-94.1 6-10.2 13.8-14.8 25-14.9 6 0 8.1.5 13.7 3.3 16.3 8 23.5 24.7 22.6 52.4l-.4 12.9 2.4-4.6c4.1-8.1 9.2-25.1 10.9-36.2 6.3-42.2-18.8-77.9-60.5-85.9-26.4-5.1-52.7 4.4-66.7 24-20.9 29.3-19.8 71.5 3 123.6 13.8 31.4 32.1 62 70.3 117.2 23.4 33.8 29 42.3 34.6 52.8l4.3 8.1.6-9.3c1.6-24.4 15.3-51.8 43-86.3 5.7-7.2 20.7-24.7 33.3-39 24.9-28.3 37.7-43.5 47.1-56 19.3-25.6 31.7-49.9 36.4-71 1.8-8.2 1.6-29-.4-40-6.1-34-25.5-72-56.4-110.5-18.8-23.5-50.6-54.4-64.1-62.4-.7-.4 2.6 6.9 7.3 16.4zm-64 463.9c-5 .7-5 .7-2.2 1.9 2 .8 9.9 1.2 25.5 1.1 23.2-.1 29-.6 26.2-2.4-1.8-1.1-42.3-1.6-49.5-.6z"/></svg>